<?xml version="1.0" encoding="UTF-8" standalone="no"?>
<svg
   xmlns:dc="http://purl.org/dc/elements/1.1/"
   xmlns:cc="http://creativecommons.org/ns#"
   xmlns:rdf="http://www.w3.org/1999/02/22-rdf-syntax-ns#"
   xmlns:svg="http://www.w3.org/2000/svg"
   xmlns="http://www.w3.org/2000/svg"
   xmlns:sodipodi="http://sodipodi.sourceforge.net/DTD/sodipodi-0.dtd"
   xmlns:inkscape="http://www.inkscape.org/namespaces/inkscape"
   sodipodi:docname="1m7.svg"
   inkscape:version="1.0 (4035a4fb49, 2020-05-01)"
   id="svg875"
   version="1.1"
   viewBox="0 0 210 297"
   height="297mm"
   width="210mm">
  <defs
     id="defs869" />
  <sodipodi:namedview
     inkscape:window-maximized="1"
     inkscape:window-y="-8"
     inkscape:window-x="1912"
     inkscape:window-height="1017"
     inkscape:window-width="1920"
     showgrid="false"
     inkscape:document-rotation="0"
     inkscape:current-layer="layer1"
     inkscape:document-units="mm"
     inkscape:cy="148.28394"
     inkscape:cx="163.93907"
     inkscape:zoom="11.2"
     inkscape:pageshadow="2"
     inkscape:pageopacity="0.0"
     borderopacity="1.0"
     bordercolor="#666666"
     pagecolor="#ffffff"
     id="base" />
  <metadata
     id="metadata872">
    <rdf:RDF>
      <cc:Work
         rdf:about="">
        <dc:format>image/svg+xml</dc:format>
        <dc:type
           rdf:resource="http://purl.org/dc/dcmitype/StillImage" />
        <dc:title></dc:title>
      </cc:Work>
    </rdf:RDF>
  </metadata>
  <g
     id="layer1"
     inkscape:groupmode="layer"
     inkscape:label="Ebene 1">
    <path
       id="path1468"
       d="m 44.258191,47.815509 c -0.214574,-0.10036 -0.42647,-0.339688 -0.483926,-0.546584 -0.02442,-0.08794 -0.04452,-0.275554 -0.04464,-0.4169 -7.06e-4,-0.766942 0.747174,-1.224844 1.40065,-0.85757 0.592996,0.333284 0.610884,1.375766 0.0302,1.760044 -0.228684,0.15134 -0.648464,0.17972 -0.902284,0.061 z m 0.745518,-0.273418 c 0.204804,-0.13682 0.292004,-0.336192 0.29125,-0.665906 -7.62e-4,-0.332742 -0.11566,-0.565598 -0.337246,-0.68351 -0.416934,-0.221858 -0.883222,0.048 -0.952432,0.551216 -0.04862,0.353528 0.12754,0.752436 0.37682,0.85328 0.17652,0.0714 0.47138,0.04528 0.621608,-0.05508 z m -0.766322,-3.347392 v -1.326822 l -1.378524,-0.794512 c -0.758186,-0.436982 -1.411478,-0.80313 -1.451758,-0.813664 -0.04352,-0.0114 -0.729854,0.36128 -1.691372,0.918366 l -1.618136,0.93752 -1.692606,-0.982212 -1.692604,-0.98221 v -1.897022 -1.897022 l -0.952018,-0.542718 c -0.52361,-0.298494 -0.946338,-0.560406 -0.939396,-0.582026 0.0465,-0.14486 0.15978,-0.101 0.981246,0.379822 0.465668,0.272566 0.886302,0.51383 0.934744,0.53614 0.07374,0.03396 0.352556,-0.11198 1.713228,-0.896846 1.431038,-0.825446 1.636756,-0.932126 1.722312,-0.893144 0.05344,0.02434 0.774622,0.436236 1.602632,0.915304 0.828008,0.47907 1.530756,0.88074 1.561664,0.8926 0.0309,0.0118 0.475644,-0.219932 0.988306,-0.515094 0.86487,-0.497944 1.048606,-0.57347 1.015042,-0.417242 -0.0072,0.0331 -0.422502,0.296558 -0.923094,0.585478 l -0.910166,0.525308 -0.011,1.859294 -0.011,1.859294 1.5912,0.911308 1.591202,0.911306 1.00215,-0.584392 c 0.891362,-0.519788 1.008002,-0.57679 1.05507,-0.515604 0.0291,0.03784 0.05232,0.07944 0.0516,0.09246 -7.28e-4,0.013 -0.381726,0.242066 -0.846666,0.509006 l -0.845346,0.485344 v 1.324406 c 0,1.296182 -0.0018,1.324404 -0.08466,1.324404 -0.08278,0 -0.08466,-0.02822 -0.08466,-1.271088 v -1.271086 l -0.13022,0.06734 c -0.1183,0.06118 -0.13948,0.06128 -0.231344,0.0011 -0.05562,-0.03644 -0.11132,-0.06626 -0.12378,-0.06626 -0.0124,0 -0.02266,0.5715 -0.02266,1.27 0,1.241778 -0.0019,1.27 -0.08466,1.27 -0.08286,0 -0.08466,-0.02822 -0.08466,-1.32682 z m -4.523104,-2.239236 1.55977,-0.899058 v -1.84828 -1.848278 l -1.589462,-0.914634 -1.589464,-0.914632 -1.574954,0.90521 -1.574954,0.905212 -0.011,1.86337 -0.011,1.86337 1.556186,0.892344 c 0.855904,0.49079 1.582954,0.892814 1.615668,0.893388 0.03272,5.76e-4 0.761374,-0.403532 1.61925,-0.898012 z m -1.642954,0.241062 c -0.0138,-0.03592 -0.018,-0.07088 -0.0092,-0.07766 0.17322,-0.13522 2.561928,-1.464262 2.603232,-1.448412 0.03212,0.0124 0.05842,0.04716 0.05842,0.07742 0,0.05552 -2.481902,1.513984 -2.576396,1.513984 -0.028,0 -0.06222,-0.0294 -0.076,-0.06532 z m -2.68161,-2.979728 v -1.526946 h 0.10636 0.10636 l -0.0112,1.513418 -0.0112,1.513416 -0.09526,0.0136 -0.09524,0.0136 z m 3.959802,-2.174778 c -0.696468,-0.403252 -1.271958,-0.751068 -1.278866,-0.772926 -0.007,-0.02186 0.0036,-0.06536 0.02348,-0.09668 0.02762,-0.04364 0.33937,0.11868 1.334576,0.69488 1.232726,0.713714 1.401762,0.836456 1.230476,0.893474 -0.02384,0.008 -0.613202,-0.3155 -1.30967,-0.718752 z m 8.279422,5.113952 c -0.387944,-0.12098 -0.62055,-0.496384 -0.61647,-0.994918 0.005,-0.611538 0.426668,-1.013396 1.012374,-0.964824 0.337952,0.02802 0.582356,0.19088 0.725468,0.483386 0.291098,0.59498 0.04616,1.312886 -0.503652,1.476162 -0.257672,0.07652 -0.372856,0.07656 -0.61772,2.1e-4 z m 0.66408,-0.30483 c 0.201358,-0.15034 0.270218,-0.285344 0.293506,-0.575456 0.0408,-0.508392 -0.21093,-0.83385 -0.644976,-0.83385 -0.13774,0 -0.260574,0.02982 -0.35171,0.08538 -0.339588,0.20704 -0.411768,0.90707 -0.12554,1.217642 0.210826,0.228766 0.598144,0.278438 0.82873,0.10628 z m -0.457302,-3.247934 v -1.245646 l -0.93341,-0.537692 c -0.685198,-0.394708 -0.929612,-0.555972 -0.919128,-0.606438 0.0078,-0.03782 0.0459,-0.06626 0.08454,-0.06324 0.03864,0.003 0.389562,0.19194 0.779808,0.419806 0.390246,0.22786 0.72937,0.414078 0.75361,0.41382 0.02424,-2.54e-4 0.526512,-0.27966 1.11616,-0.62089 0.58965,-0.341228 1.079516,-0.620416 1.088594,-0.620416 0.009,0 0.0353,0.03512 0.05826,0.07804 0.0371,0.06932 -0.07626,0.14598 -1.01431,0.685872 l -1.056076,0.607834 0.1268,0.08028 c 0.09326,0.05906 0.1268,0.11276 0.1268,0.203126 0,0.06756 0.0076,0.12284 0.017,0.12284 0.0094,0 0.477944,-0.2667 1.04139,-0.592668 0.563444,-0.325966 1.0314,-0.592666 1.0399,-0.592666 0.0084,0 0.0346,0.03576 0.058,0.07948 0.03814,0.07128 -0.07092,0.1445 -1.056208,0.709084 l -1.098744,0.6296 -6.38e-4,1.04775 -6.36e-4,1.04775 h -0.10584 -0.10584 z m -18.3071,-1.67201 c -0.03332,-0.0539 0.0156,-0.254522 0.08858,-0.363178 0.03128,-0.04656 0.1856,-0.1704 0.342934,-0.275168 0.241834,-0.16104 0.2881,-0.211376 0.29915,-0.325476 0.0104,-0.10706 -0.01,-0.1501 -0.09852,-0.208102 -0.15732,-0.10308 -0.324436,-0.04018 -0.378378,0.14246 -0.03042,0.10298 -0.06468,0.13712 -0.13758,0.13712 -0.11122,0 -0.12772,-0.0981 -0.0465,-0.276348 0.06552,-0.14378 0.239454,-0.231652 0.458578,-0.231652 0.339504,0 0.540434,0.372836 0.354148,0.657142 -0.03742,0.0571 -0.17086,0.16266 -0.296528,0.234562 -0.464908,0.265994 -0.463312,0.335964 0.0076,0.335964 0.351998,0 0.362374,0.0028 0.34925,0.09526 -0.013,0.0911 -0.03322,0.09578 -0.46525,0.10724 -0.265146,0.007 -0.462386,-0.0052 -0.477544,-0.0298 z m -1.483734,-0.493014 c -0.43819,-0.227076 -0.634082,-0.759478 -0.481818,-1.309498 0.07264,-0.262376 0.384752,-0.549164 0.661734,-0.608036 0.768224,-0.16328 1.346692,0.546342 1.104454,1.354862 -0.06196,0.206766 -0.285106,0.47017 -0.474454,0.56002 -0.1882,0.0893 -0.639848,0.09078 -0.809916,0.0026 z m 0.567974,-0.18666 c 0.307354,-0.08814 0.479776,-0.356022 0.479776,-0.745378 0,-0.464436 -0.248654,-0.753582 -0.648046,-0.753582 -0.40484,0 -0.655794,0.292302 -0.650018,0.757116 0.0046,0.377838 0.17832,0.656082 0.460656,0.738204 0.17452,0.05076 0.19268,0.05096 0.357632,0.0036 z m 22.179506,0.16744 c -0.56974,-0.30099 -0.679354,-1.168896 -0.208712,-1.65255 0.234956,-0.241452 0.509954,-0.322912 0.841244,-0.24919 0.468806,0.10432 0.728822,0.460168 0.728822,0.997438 0,0.41436 -0.219868,0.794724 -0.53839,0.9314 -0.200826,0.08618 -0.63566,0.07186 -0.822964,-0.0271 z m 0.77528,-0.242606 c 0.18602,-0.10984 0.309182,-0.374992 0.30966,-0.666678 7.66e-4,-0.466918 -0.249316,-0.757116 -0.652458,-0.757116 -0.405284,0 -0.637462,0.274768 -0.637462,0.754398 0,0.30193 0.05458,0.450596 0.223278,0.60815 0.19676,0.18376 0.506982,0.208868 0.756982,0.06124 z m -20.815626,0.231858 c -0.0114,-0.02968 -0.0156,-0.463066 -0.0092,-0.963082 l 0.0114,-0.90912 h 0.14598 c 0.14262,0 0.15668,0.0166 0.613832,0.728708 l 0.467866,0.728708 0.0116,-0.739292 0.0116,-0.739292 h 0.12602 0.12602 v 0.973668 0.973666 h -0.14284 c -0.13884,0 -0.1557,-0.02036 -0.60325,-0.7281 l -0.460414,-0.728102 -0.0116,0.728102 -0.0116,0.7281 h -0.12732 c -0.07004,0 -0.13664,-0.02428 -0.14804,-0.05396 z m 13.1467,-0.919702 v -0.973662 h 0.14284 c 0.13878,0 0.15576,0.02044 0.598822,0.720974 0.250792,0.396534 0.472266,0.731034 0.492164,0.743332 0.0198,0.0122 0.03618,-0.31214 0.03618,-0.720974 v -0.743332 h 0.127 0.127 v 0.976224 0.97622 l -0.1581,-0.0132 c -0.15492,-0.0128 -0.1675,-0.0278 -0.624418,-0.741898 l -0.46631,-0.728758 -0.0116,0.739342 -0.0116,0.739342 h -0.12602 -0.12602 z m 0.677332,-1.8415 c 0,-0.530658 7.84e-4,-0.534944 0.09524,-0.521528 0.09274,0.0132 0.09524,0.02694 0.09524,0.521528 0,0.494584 -0.0026,0.508356 -0.09524,0.521526 -0.09446,0.0134 -0.09524,0.0092 -0.09524,-0.521526 z m 3.232446,-0.484176 c -0.11846,-0.05082 -0.226778,-0.20822 -0.226778,-0.329578 0,-0.13636 0.19968,-0.13872 0.219304,-0.0026 0.0074,0.0516 0.06592,0.12304 0.12994,0.15874 0.10372,0.05784 0.12862,0.058 0.228402,0.0014 0.239782,-0.13596 0.19582,-0.427236 -0.07028,-0.465666 -0.20978,-0.0303 -0.224022,-0.15512 -0.02202,-0.19302 0.18252,-0.03424 0.251276,-0.1379 0.19304,-0.29105 -0.03282,-0.0863 -0.06976,-0.10848 -0.17992,-0.10796 -0.1683,7.86e-4 -0.209676,0.02796 -0.277542,0.18228 -0.06634,0.15084 -0.20566,0.14056 -0.18806,-0.0138 0.04108,-0.360376 0.500846,-0.501232 0.76707,-0.235008 0.12772,0.12772 0.1426,0.35998 0.03094,0.483362 -0.0676,0.0747 -0.0684,0.08666 -0.008,0.12048 0.1614,0.09032 0.1507,0.473126 -0.0174,0.625334 -0.0964,0.08724 -0.439062,0.12698 -0.578624,0.06712 z m -3.422946,-0.487056 c -0.229174,-0.08446 -0.42537,-0.308896 -0.5053,-0.578052 -0.08354,-0.28129 -0.08362,-0.472212 -2.96e-4,-0.752722 0.13218,-0.4451 0.480798,-0.67569 0.952956,-0.630322 0.307134,0.02952 0.513498,0.20896 0.6094,0.52991 0.02578,0.0863 0.0142,0.09524 -0.12256,0.09524 -0.1093,0 -0.15104,-0.0184 -0.15104,-0.06676 0,-0.03672 -0.05568,-0.12244 -0.12374,-0.1905 -0.1011,-0.1011 -0.15958,-0.12374 -0.319602,-0.12374 -0.269978,0 -0.435896,0.09646 -0.532718,0.309724 -0.10566,0.232738 -0.10974,0.67249 -0.0082,0.874766 0.146,0.290606 0.496632,0.418676 0.765534,0.279622 0.1154,-0.05968 0.17804,-0.15042 0.260132,-0.376838 0.03524,-0.09718 0.06474,-0.11674 0.15962,-0.10584 0.1018,0.0118 0.1147,0.02932 0.10282,0.1404 -0.02046,0.19134 -0.1812,0.451508 -0.333924,0.540464 -0.18386,0.1071 -0.54059,0.13298 -0.75316,0.05464 z m 1.437118,-0.07762 c -0.0114,-0.0297 -0.0156,-0.453568 -0.0092,-0.941918 l 0.0114,-0.887906 0.13758,-0.0132 0.13758,-0.0132 v 0.404848 0.40485 h 0.465668 0.465666 v -0.402284 -0.402166 h 0.14816 0.14816 v 0.9525 0.9525 h -0.14816 -0.14816 v -0.423334 -0.423332 h -0.465666 -0.465668 v 0.423332 0.423334 h -0.12832 c -0.07058,0 -0.13766,-0.0243 -0.14906,-0.05402 z"
       style="fill:#000000;stroke:#000000;stroke-width:0.0423334;stroke-opacity:1" />
  </g>
</svg>
