<?xml version="1.0" encoding="UTF-8" standalone="no"?>
<svg
   xmlns:dc="http://purl.org/dc/elements/1.1/"
   xmlns:cc="http://creativecommons.org/ns#"
   xmlns:rdf="http://www.w3.org/1999/02/22-rdf-syntax-ns#"
   xmlns:svg="http://www.w3.org/2000/svg"
   xmlns="http://www.w3.org/2000/svg"
   xmlns:sodipodi="http://sodipodi.sourceforge.net/DTD/sodipodi-0.dtd"
   xmlns:inkscape="http://www.inkscape.org/namespaces/inkscape"
   version="1.1"
   id="Layer_1"
   width="275.372"
   height="253.034"
   viewBox="0 0 275.372 253.034"
   style="overflow:visible;enable-background:new 0 0 275.372 253.034;"
   xml:space="preserve"
   sodipodi:version="0.32"
   inkscape:version="1.0 (4035a4fb49, 2020-05-01)"
   sodipodi:docname="adenosin.svg"
   inkscape:output_extension="org.inkscape.output.svg.inkscape"
   inkscape:export-filename="C:\Users\neomo\Documents\GitHub\ky-nf-capstone\base_img\adenosin.png"
   inkscape:export-xdpi="348.61932"
   inkscape:export-ydpi="348.61932"><metadata
   id="metadata104"><rdf:RDF><cc:Work
       rdf:about=""><dc:format>image/svg+xml</dc:format><dc:type
         rdf:resource="http://purl.org/dc/dcmitype/StillImage" /></cc:Work></rdf:RDF></metadata><defs
   id="defs102"><inkscape:perspective
   sodipodi:type="inkscape:persp3d"
   inkscape:vp_x="0 : 126.517 : 1"
   inkscape:vp_y="0 : 1000 : 0"
   inkscape:vp_z="275.37201 : 126.517 : 1"
   inkscape:persp3d-origin="137.686 : 84.344666 : 1"
   id="perspective106" />
	

	
	

	
	

	
	

	

	

	

	

	
	

	
</defs><sodipodi:namedview
   inkscape:window-height="1017"
   inkscape:window-width="1920"
   inkscape:pageshadow="2"
   inkscape:pageopacity="0.0"
   guidetolerance="10.0"
   gridtolerance="10.0"
   objecttolerance="10.0"
   borderopacity="1.0"
   bordercolor="#666666"
   pagecolor="#ffffff"
   id="base"
   showgrid="false"
   inkscape:zoom="1.8258416"
   inkscape:cx="137.686"
   inkscape:cy="126.517"
   inkscape:window-x="-30080"
   inkscape:window-y="-32000"
   inkscape:current-layer="Layer_1"
   inkscape:document-rotation="0"
   inkscape:window-maximized="0" />
<path
   style="fill:#231f20;stroke-width:1.8;stroke-miterlimit:4;stroke-dasharray:none;stroke:#000000;stroke-opacity:1"
   d="M 133.67323,197.31103 L 136.42822,199.73352 L 135.62168,202.15602 L 88.215725,202.15602 L 87.409175,199.73352 L 90.164175,197.31103 L 133.67323,197.31103 z"
   id="polygon3" />
<path
   style="fill:#231f20;stroke-width:1.8;stroke-miterlimit:4;stroke-dasharray:none;stroke:#000000;stroke-opacity:1"
   d="M 62.090725,157.50602 L 62.898225,157.31697 L 64.085725,157.60102 L 90.164175,197.31103 L 87.409175,199.73352 L 86.601675,206.24197 L 62.090725,157.50602 z"
   id="polygon5" />
<path
   style="fill:#231f20;stroke-width:1.8;stroke-miterlimit:4;stroke-dasharray:none;stroke:#000000;stroke-opacity:1"
   d="M 159.75168,157.60102 L 160.93918,157.31697 L 161.74668,157.50602 L 137.23573,206.24197 L 136.42822,199.73352 L 133.67323,197.31103 L 159.75168,157.60102 z"
   id="polygon7" />
<path
   style="fill:#231f20;stroke-width:1.8;stroke-miterlimit:4;stroke-dasharray:none;stroke:#000000;stroke-opacity:1"
   d="M 101.70668,136.84352 L 102.41918,138.31697 L 64.085725,157.60102 L 62.898225,157.31697 L 63.706675,155.98602 L 101.70668,136.84352 z"
   id="polygon9" />
<path
   id="path13"
   d="M 103.70738,133.83677 C 103.70738,131.12642 104.43508,129.00602 105.89048,127.47367 C 107.34588,125.94037 109.22498,125.17372 111.52683,125.17372 C 113.03448,125.17372 114.39298,125.53377 115.60328,126.25387 C 116.81358,126.97492 117.73603,127.97812 118.37158,129.26632 C 119.00713,130.55452 119.32348,132.01562 119.32348,133.64772 C 119.32348,135.30357 118.98908,136.78462 118.32123,138.09087 C 117.65338,139.39712 116.70623,140.38702 115.48073,141.05867 C 114.25523,141.73032 112.93378,142.06662 111.51543,142.06662 C 109.97833,142.06662 108.60463,141.69517 107.39433,140.95322 C 106.18403,140.21127 105.26728,139.19667 104.64313,137.91322 C 104.01898,136.62977 103.70738,135.26937 103.70738,133.83677 z M 105.93418,133.86432 C 105.93418,135.83082 106.46333,137.38027 107.52163,138.51268 C 108.57993,139.64507 109.90803,140.21033 111.50403,140.21033 C 113.13043,140.21033 114.46898,139.63842 115.52063,138.49558 C 116.57133,137.35272 117.09668,135.73108 117.09668,133.63062 C 117.09668,132.30252 116.87248,131.14257 116.42313,130.15172 C 115.97378,129.16088 115.31638,128.39232 114.45093,127.84702 C 113.58548,127.30172 112.61458,127.02907 111.53823,127.02907 C 110.00873,127.02907 108.69203,127.55442 107.58908,128.60417 C 106.48613,129.65392 105.93418,131.40762 105.93418,133.86432 z"
   style="fill:#231f20;stroke-width:1.8;stroke-miterlimit:4;stroke-dasharray:none;stroke:#000000;stroke-opacity:1" />
<path
   style="fill:#231f20;stroke-width:1.8;stroke-miterlimit:4;stroke-dasharray:none;stroke:#000000;stroke-opacity:1"
   d="M 120.70668,138.26852 L 121.41918,136.79602 L 160.13168,155.98602 L 160.93918,157.31697 L 159.75168,157.60102 L 120.70668,138.26852 z"
   id="polygon15" />
<path
   style="fill:#231f20;stroke-width:1.8;stroke-miterlimit:4;stroke-dasharray:none;stroke:#000000;stroke-opacity:1"
   d="M 62.090725,120.07602 L 63.706675,119.12602 L 63.706675,155.98602 L 62.898225,157.31697 L 62.090725,157.50602 L 62.090725,120.07602 z"
   id="polygon17" />
<path
   id="path21"
   d="M 128.59737,238.47928 C 128.59737,235.76892 129.32507,233.64852 130.78048,232.11617 C 132.23588,230.58287 134.11498,229.81622 136.41683,229.81622 C 137.92448,229.81622 139.28297,230.17627 140.49328,230.89637 C 141.70358,231.61742 142.62602,232.62062 143.26158,233.90882 C 143.89618,235.19607 144.21347,236.65812 144.21347,238.29022 C 144.21347,239.94607 143.87908,241.42712 143.21123,242.73337 C 142.54243,244.03962 141.59623,245.02952 140.37073,245.70117 C 139.14523,246.37283 137.82378,246.70912 136.40543,246.70912 C 134.86832,246.70912 133.49463,246.33767 132.28433,245.59572 C 131.07403,244.85377 130.15727,243.83917 129.53313,242.55572 C 128.90898,241.27228 128.59737,239.91282 128.59737,238.47928 z M 130.82323,238.50682 C 130.82323,240.47332 131.35238,242.02277 132.41068,243.15517 C 133.46898,244.28757 134.79708,244.85282 136.39308,244.85282 C 138.01948,244.85282 139.35802,244.28092 140.40968,243.13807 C 141.46037,241.99523 141.98573,240.37357 141.98573,238.27312 C 141.98573,236.94502 141.76153,235.78507 141.31217,234.79422 C 140.86283,233.80337 140.20543,233.03482 139.33998,232.48952 C 138.47452,231.94422 137.50362,231.67157 136.42728,231.67157 C 134.89778,231.67157 133.58108,232.19692 132.47813,233.24667 C 131.37518,234.29642 130.82323,236.05012 130.82323,238.50682 z"
   style="fill:#231f20;stroke-width:1.8;stroke-miterlimit:4;stroke-dasharray:none;stroke:#000000;stroke-opacity:1" /><path
   id="path23"
   d="M 147.07298,246.42602 L 147.07298,230.09838 L 149.23993,230.09838 L 149.23993,236.80822 L 157.68638,236.80822 L 157.68638,230.09838 L 159.85333,230.09838 L 159.85333,246.42697 L 157.68638,246.42697 L 157.68638,238.73767 L 149.23993,238.73767 L 149.23993,246.42697 L 147.07298,246.42697 L 147.07298,246.42602 z"
   style="fill:#231f20;stroke-width:1.8;stroke-miterlimit:4;stroke-dasharray:none;stroke:#000000;stroke-opacity:1" />
<path
   style="fill:#231f20;stroke-width:1.8;stroke-miterlimit:4;stroke-dasharray:none;stroke:#000000;stroke-opacity:1"
   d="M 137.23573,227.66352 L 135.62168,227.66352 L 135.62168,202.15602 L 136.42822,199.73352 L 137.23573,206.24197 L 137.23573,227.66352 z"
   id="polygon25" />
<path
   id="path29"
   d="M 79.624875,238.47928 C 79.624875,235.76892 80.352575,233.64852 81.807975,232.11617 C 83.263375,230.58287 85.142475,229.81622 87.444325,229.81622 C 88.951975,229.81622 90.310475,230.17627 91.520775,230.89637 C 92.731075,231.61742 93.653525,232.62062 94.289075,233.90882 C 94.924625,235.19702 95.240975,236.65812 95.240975,238.29022 C 95.240975,239.94607 94.906575,241.42712 94.238725,242.73337 C 93.570875,244.03962 92.623725,245.02952 91.398225,245.70117 C 90.172725,246.37283 88.851275,246.70912 87.432925,246.70912 C 85.895825,246.70912 84.522125,246.33767 83.311825,245.59572 C 82.101525,244.85377 81.184775,243.83917 80.560625,242.55572 C 79.936475,241.27228 79.624875,239.91282 79.624875,238.47928 z M 81.851675,238.50682 C 81.851675,240.47332 82.380825,242.02277 83.439125,243.15517 C 84.497425,244.28757 85.825525,244.85282 87.421525,244.85282 C 89.047925,244.85282 90.386475,244.28092 91.438125,243.13807 C 92.488825,241.99523 93.014175,240.37357 93.014175,238.27312 C 93.014175,236.94502 92.789975,235.78507 92.340625,234.79422 C 91.891275,233.80337 91.233875,233.03482 90.368425,232.48952 C 89.502975,231.94422 88.532075,231.67157 87.455725,231.67157 C 85.926225,231.67157 84.609525,232.19692 83.506575,233.24667 C 82.403625,234.29642 81.851675,236.05012 81.851675,238.50682 z"
   style="fill:#231f20;stroke-width:1.8;stroke-miterlimit:4;stroke-dasharray:none;stroke:#000000;stroke-opacity:1" /><path
   id="path31"
   d="M 98.101425,246.42602 L 98.101425,230.09838 L 100.26838,230.09838 L 100.26838,236.80822 L 108.71483,236.80822 L 108.71483,230.09838 L 110.88178,230.09838 L 110.88178,246.42697 L 108.71483,246.42697 L 108.71483,238.73767 L 100.26838,238.73767 L 100.26838,246.42697 L 98.101425,246.42697 L 98.101425,246.42602 z"
   style="fill:#231f20;stroke-width:1.8;stroke-miterlimit:4;stroke-dasharray:none;stroke:#000000;stroke-opacity:1" />
<path
   style="fill:#231f20;stroke-width:1.8;stroke-miterlimit:4;stroke-dasharray:none;stroke:#000000;stroke-opacity:1"
   d="M 88.215725,227.66352 L 86.601675,227.66352 L 86.601675,206.24197 L 87.409175,199.73352 L 88.215725,202.15602 L 88.215725,227.66352 z"
   id="polygon33" />
<path
   style="fill:#231f20;stroke-width:1.8;stroke-miterlimit:4;stroke-dasharray:none;stroke:#000000;stroke-opacity:1"
   d="M 160.13168,130.71697 L 161.74668,130.71697 L 161.74668,157.50602 L 160.93918,157.31697 L 160.13168,155.98602 L 160.13168,130.71697 z"
   id="polygon35" />
<path
   id="path39"
   d="M 6.884325,109.72102 L 6.884325,93.392425 L 9.051275,93.392425 L 9.051275,100.10227 L 17.497725,100.10227 L 17.497725,93.392425 L 19.664675,93.392425 L 19.664675,109.72102 L 17.497725,109.72102 L 17.497725,102.03172 L 9.051275,102.03172 L 9.051275,109.72102 L 6.884325,109.72102 z"
   style="fill:#231f20;stroke-width:1.8;stroke-miterlimit:4;stroke-dasharray:none;stroke:#000000;stroke-opacity:1" /><path
   id="path41"
   d="M 22.607775,101.77427 C 22.607775,99.063925 23.335475,96.943525 24.790875,95.411175 C 26.246275,93.877875 28.125375,93.111225 30.427225,93.111225 C 31.934875,93.111225 33.293375,93.471275 34.503675,94.191375 C 35.713975,94.912425 36.636425,95.915625 37.271975,97.203825 C 37.907525,98.492025 38.223875,99.953125 38.223875,101.58522 C 38.223875,103.24107 37.889475,104.72212 37.221625,106.02837 C 36.553775,107.33462 35.606625,108.32452 34.381125,108.99617 C 33.155625,109.66782 31.834175,110.00412 30.415825,110.00412 C 28.878725,110.00412 27.505025,109.63267 26.294725,108.89072 C 25.084425,108.14877 24.167675,107.13417 23.543525,105.85072 C 22.919375,104.56727 22.607775,103.20687 22.607775,101.77427 z M 24.834575,101.80182 C 24.834575,103.76832 25.363725,105.31777 26.422025,106.45018 C 27.480325,107.58257 28.808425,108.14782 30.404425,108.14782 C 32.030825,108.14782 33.369375,107.57592 34.421025,106.43307 C 35.471725,105.29022 35.997075,103.66857 35.997075,101.56812 C 35.997075,100.24002 35.772875,99.080075 35.323525,98.089225 C 34.874175,97.098375 34.216775,96.329825 33.351325,95.784525 C 32.485875,95.239225 31.514975,94.966575 30.438625,94.966575 C 28.909125,94.966575 27.592425,95.491925 26.489475,96.541675 C 25.386525,97.591425 24.834575,99.345125 24.834575,101.80182 z"
   style="fill:#231f20;stroke-width:1.8;stroke-miterlimit:4;stroke-dasharray:none;stroke:#000000;stroke-opacity:1" />
<path
   style="fill:#231f20;stroke-width:1.8;stroke-miterlimit:4;stroke-dasharray:none;stroke:#000000;stroke-opacity:1"
   d="M 39.196675,106.87102 L 40.003225,105.44602 L 63.706675,119.12602 L 62.090725,120.07602 L 39.196675,106.87102 z"
   id="polygon43" />
<path
   id="path47"
   d="M 255.63328,79.226025 L 255.63328,62.898375 L 257.85627,62.898375 L 266.41008,75.712925 L 266.41008,62.898375 L 268.48868,62.898375 L 268.48868,79.226975 L 266.26568,79.226975 L 257.71188,66.412425 L 257.71188,79.226975 L 255.63328,79.226975 L 255.63328,79.226025 z"
   style="fill:#231f20;stroke-width:1.8;stroke-miterlimit:4;stroke-dasharray:none;stroke:#000000;stroke-opacity:1" />
<path
   id="path51"
   d="M 223.00078,135.84602 L 223.00078,119.51742 L 225.22377,119.51742 L 233.77758,132.33197 L 233.77758,119.51742 L 235.85618,119.51742 L 235.85618,135.84602 L 233.63317,135.84602 L 225.07937,123.03147 L 225.07937,135.84602 L 223.00078,135.84602 L 223.00078,135.84602 z"
   style="fill:#231f20;stroke-width:1.8;stroke-miterlimit:4;stroke-dasharray:none;stroke:#000000;stroke-opacity:1" />
<path
   style="fill:#231f20;stroke-width:1.8;stroke-miterlimit:4;stroke-dasharray:none;stroke:#000000;stroke-opacity:1"
   d="M 262.92167,108.39102 L 261.30667,107.48852 L 261.30667,81.363525 L 262.92167,81.363525 L 262.92167,108.39102 z"
   id="polygon53" />
<path
   style="fill:#231f20;stroke-width:1.8;stroke-miterlimit:4;stroke-dasharray:none;stroke:#000000;stroke-opacity:1"
   d="M 239.64668,121.88102 L 238.83918,120.50352 L 261.30667,107.48852 L 262.92167,108.39102 L 239.64668,121.88102 z"
   id="polygon55" />
<path
   style="fill:#231f20;stroke-width:1.8;stroke-miterlimit:4;stroke-dasharray:none;stroke:#000000;stroke-opacity:1"
   d="M 236.79668,116.98852 L 235.98918,115.61102 L 256.03418,103.97352 L 256.84073,105.39852 L 236.79668,116.98852 z"
   id="polygon57" />
<path
   style="fill:#231f20;stroke-width:1.8;stroke-miterlimit:4;stroke-dasharray:none;stroke:#000000;stroke-opacity:1"
   d="M 196.65918,108.81852 L 196.75323,107.96352 L 197.56072,107.48852 L 220.02822,120.45602 L 219.22168,121.88102 L 196.65918,108.81852 z"
   id="polygon59" />
<path
   style="fill:#231f20;stroke-width:1.8;stroke-miterlimit:4;stroke-dasharray:none;stroke:#000000;stroke-opacity:1"
   d="M 195.94668,70.818525 L 196.75323,70.248525 L 197.56072,70.723525 L 197.56072,107.48852 L 196.75323,107.96352 L 195.94668,107.34602 L 195.94668,70.818525 z"
   id="polygon61" />
<path
   style="fill:#231f20;stroke-width:1.8;stroke-miterlimit:4;stroke-dasharray:none;stroke:#000000;stroke-opacity:1"
   d="M 201.59823,73.526025 L 203.21418,73.526025 L 203.21418,104.68603 L 201.59823,104.68603 L 201.59823,73.526025 z"
   id="rect63" />
<path
   style="fill:#231f20;stroke-width:1.8;stroke-miterlimit:4;stroke-dasharray:none;stroke:#000000;stroke-opacity:1"
   d="M 228.67323,50.916975 L 229.48073,51.391025 L 229.48073,52.341975 L 197.56072,70.723525 L 196.75323,70.248525 L 196.65918,69.346025 L 228.67323,50.916975 z"
   id="polygon65" />
<path
   style="fill:#231f20;stroke-width:1.8;stroke-miterlimit:4;stroke-dasharray:none;stroke:#000000;stroke-opacity:1"
   d="M 229.48073,52.341975 L 229.48073,51.391025 L 230.28918,50.916975 L 252.70917,63.883525 L 251.90168,65.261025 L 229.48073,52.341975 z"
   id="polygon67" />
<path
   style="fill:#231f20;stroke-width:1.8;stroke-miterlimit:4;stroke-dasharray:none;stroke:#000000;stroke-opacity:1"
   d="M 229.05322,58.611025 L 229.86073,57.233525 L 249.85918,68.776025 L 249.05168,70.154475 L 229.05322,58.611025 z"
   id="polygon69" />
<path
   id="path73"
   d="M 154.45828,128.57853 L 154.45828,112.24992 L 156.68128,112.24992 L 165.23508,125.06447 L 165.23508,112.24992 L 167.31367,112.24992 L 167.31367,128.57853 L 165.09068,128.57853 L 156.53688,115.76397 L 156.53688,128.57853 L 154.45828,128.57853 z"
   style="fill:#231f20;stroke-width:1.8;stroke-miterlimit:4;stroke-dasharray:none;stroke:#000000;stroke-opacity:1" />
<path
   id="path77"
   d="M 154.45828,67.541025 L 154.45828,51.212425 L 156.68128,51.212425 L 165.23508,64.026975 L 165.23508,51.212425 L 167.31367,51.212425 L 167.31367,67.541025 L 165.09068,67.541025 L 156.53688,54.726475 L 156.53688,67.541025 L 154.45828,67.541025 z"
   style="fill:#231f20;stroke-width:1.8;stroke-miterlimit:4;stroke-dasharray:none;stroke:#000000;stroke-opacity:1" />
<path
   style="fill:#231f20;stroke-width:1.8;stroke-miterlimit:4;stroke-dasharray:none;stroke:#000000;stroke-opacity:1"
   d="M 170.58167,117.32102 L 170.05918,115.75352 L 195.94668,107.34602 L 196.75323,107.96352 L 196.65918,108.81852 L 170.58167,117.32102 z"
   id="polygon79" />
<path
   style="fill:#231f20;stroke-width:1.8;stroke-miterlimit:4;stroke-dasharray:none;stroke:#000000;stroke-opacity:1"
   d="M 137.75918,89.106025 L 139.75323,89.106025 L 154.57323,109.48352 L 153.24418,110.43352 L 137.75918,89.106025 z"
   id="polygon81" />
<path
   style="fill:#231f20;stroke-width:1.8;stroke-miterlimit:4;stroke-dasharray:none;stroke:#000000;stroke-opacity:1"
   d="M 152.48418,68.823525 L 153.81418,69.773525 L 139.75323,89.106025 L 137.75918,89.106025 L 152.48418,68.823525 z"
   id="polygon83" />
<path
   style="fill:#231f20;stroke-width:1.8;stroke-miterlimit:4;stroke-dasharray:none;stroke:#000000;stroke-opacity:1"
   d="M 157.09073,72.148525 L 158.37322,73.098525 L 146.40323,89.581025 L 145.07323,88.631025 L 157.09073,72.148525 z"
   id="polygon85" />
<path
   style="fill:#231f20;stroke-width:1.8;stroke-miterlimit:4;stroke-dasharray:none;stroke:#000000;stroke-opacity:1"
   d="M 170.05918,62.411025 L 170.58167,60.891975 L 196.65918,69.346025 L 196.75323,70.248525 L 195.94668,70.818525 L 170.05918,62.411025 z"
   id="polygon87" />
<path
   id="path91"
   d="M 223.00078,22.654475 L 223.00078,6.325875 L 225.22377,6.325875 L 233.77758,19.140425 L 233.77758,6.325875 L 235.85618,6.325875 L 235.85618,22.654475 L 233.63317,22.654475 L 225.07937,9.839925 L 225.07937,22.654475 L 223.00078,22.654475 z"
   style="fill:#231f20;stroke-width:1.8;stroke-miterlimit:4;stroke-dasharray:none;stroke:#000000;stroke-opacity:1" /><path
   id="path93"
   d="M 239.57067,22.654475 L 239.57067,6.325875 L 241.73763,6.325875 L 241.73763,13.035725 L 250.18408,13.035725 L 250.18408,6.325875 L 252.35103,6.325875 L 252.35103,22.654475 L 250.18408,22.654475 L 250.18408,14.965175 L 241.73763,14.965175 L 241.73763,22.654475 L 239.57067,22.654475 z"
   style="fill:#231f20;stroke-width:1.8;stroke-miterlimit:4;stroke-dasharray:none;stroke:#000000;stroke-opacity:1" />
<path
   id="path97"
   d="M 262.59297,25.489275 L 262.59297,26.929475 L 254.48853,26.929475 C 254.47713,26.567525 254.53602,26.219825 254.66523,25.885425 C 254.87328,25.334425 255.20388,24.791975 255.66177,24.258075 C 256.11777,23.724175 256.77328,23.107625 257.62732,22.408425 C 258.95353,21.313075 259.85318,20.447625 260.32532,19.811125 C 260.79843,19.174625 261.03497,18.571375 261.03497,18.003275 C 261.03497,17.408575 260.82123,16.907925 260.39278,16.498475 C 259.96623,16.089975 259.40857,15.885725 258.72078,15.885725 C 257.99307,15.885725 257.41262,16.103275 256.97658,16.539325 C 256.54053,16.975375 256.32013,17.578625 256.31443,18.349075 L 254.77068,18.185675 C 254.87613,17.030475 255.27513,16.150775 255.96767,15.546575 C 256.66023,14.940475 257.58837,14.638375 258.75498,14.638375 C 259.93108,14.638375 260.86397,14.964225 261.54892,15.615925 C 262.23577,16.267625 262.57873,17.075125 262.57873,18.038425 C 262.57873,18.528625 262.47898,19.010275 262.27758,19.483375 C 262.07617,19.956475 261.74273,20.455225 261.27722,20.978675 C 260.81077,21.502125 260.03843,22.220325 258.95923,23.133275 C 258.05578,23.891375 257.47532,24.404375 257.21788,24.675125 C 256.96042,24.943975 256.74667,25.215675 256.57853,25.488325 L 262.59297,25.488325 L 262.59297,25.489275 z"
   style="fill:#231f20;stroke-width:1.8;stroke-miterlimit:4;stroke-dasharray:none;stroke:#000000;stroke-opacity:1" />
<path
   style="fill:#231f20;stroke-width:1.8;stroke-miterlimit:4;stroke-dasharray:none;stroke:#000000;stroke-opacity:1"
   d="M 228.67323,24.791025 L 230.28918,24.791025 L 230.28918,50.916975 L 229.48073,51.391025 L 228.67323,50.916975 L 228.67323,24.791025 z"
   id="polygon99" />
</svg>
