<?xml version="1.0" encoding="UTF-8" standalone="no"?>
<svg
   xmlns:dc="http://purl.org/dc/elements/1.1/"
   xmlns:cc="http://creativecommons.org/ns#"
   xmlns:rdf="http://www.w3.org/1999/02/22-rdf-syntax-ns#"
   xmlns:svg="http://www.w3.org/2000/svg"
   xmlns="http://www.w3.org/2000/svg"
   xmlns:sodipodi="http://sodipodi.sourceforge.net/DTD/sodipodi-0.dtd"
   xmlns:inkscape="http://www.inkscape.org/namespaces/inkscape"
   inkscape:export-ydpi="300"
   inkscape:export-xdpi="300"
   inkscape:export-filename="C:\Users\neomo\Documents\GitHub\ky-nf-capstone\base_img\cytidin.png"
   inkscape:output_extension="org.inkscape.output.svg.inkscape"
   sodipodi:docname="cytidin.svg"
   inkscape:version="1.0 (4035a4fb49, 2020-05-01)"
   sodipodi:version="0.32"
   xml:space="preserve"
   style="overflow:visible;enable-background:new 0 0 239.156 257.785;"
   viewBox="0 0 239.156 257.785"
   height="257.785"
   width="239.156"
   id="Layer_1"
   version="1.1"><metadata
   id="metadata92"><rdf:RDF><cc:Work
       rdf:about=""><dc:format>image/svg+xml</dc:format><dc:type
         rdf:resource="http://purl.org/dc/dcmitype/StillImage" /></cc:Work></rdf:RDF></metadata><defs
   id="defs90"><inkscape:perspective
   id="perspective94"
   inkscape:persp3d-origin="119.578 : 85.928335 : 1"
   inkscape:vp_z="239.15601 : 128.8925 : 1"
   inkscape:vp_y="0 : 1000 : 0"
   inkscape:vp_x="0 : 128.8925 : 1"
   sodipodi:type="inkscape:persp3d" />
	

	
	

	
	

	
	

	

	

	
	

	

	
</defs><sodipodi:namedview
   inkscape:window-maximized="1"
   inkscape:document-rotation="0"
   inkscape:current-layer="Layer_1"
   inkscape:window-y="-8"
   inkscape:window-x="1912"
   inkscape:cy="128.8925"
   inkscape:cx="119.578"
   inkscape:zoom="1.7921911"
   showgrid="false"
   id="base"
   pagecolor="#ffffff"
   bordercolor="#666666"
   borderopacity="1.0"
   objecttolerance="10.0"
   gridtolerance="10.0"
   guidetolerance="10.0"
   inkscape:pageopacity="0.0"
   inkscape:pageshadow="2"
   inkscape:window-width="1920"
   inkscape:window-height="1017" />
<path
   id="polygon3"
   d="M 132.76782,201.99075 L 135.52283,204.41325 L 134.71627,206.83575 L 87.310325,206.83575 L 86.503775,204.41325 L 89.258775,201.99075 L 132.76782,201.99075 z"
   style="fill:#231f20;stroke:#000000;stroke-opacity:1" />
<path
   id="polygon5"
   d="M 61.185325,162.13825 L 61.992825,161.94825 L 63.180325,162.28075 L 89.258775,201.99075 L 86.503775,204.41325 L 85.696275,210.87325 L 61.185325,162.13825 z"
   style="fill:#231f20;stroke:#000000;stroke-opacity:1" />
<path
   id="polygon7"
   d="M 158.84628,162.28075 L 160.03378,161.94825 L 160.84127,162.13825 L 136.33032,210.87325 L 135.52283,204.41325 L 132.76782,201.99075 L 158.84628,162.28075 z"
   style="fill:#231f20;stroke:#000000;stroke-opacity:1" />
<path
   id="polygon9"
   d="M 100.80128,141.47575 L 101.51378,142.94825 L 63.180325,162.28075 L 61.992825,161.94825 L 62.801275,160.61825 L 100.80128,141.47575 z"
   style="fill:#231f20;stroke:#000000;stroke-opacity:1" />
<path
   style="fill:#231f20;stroke:#000000;stroke-opacity:1"
   d="M 102.80197,138.469 C 102.80197,135.75865 103.52968,133.63825 104.98508,132.1059 C 106.44048,130.5726 108.31958,129.80595 110.62143,129.80595 C 112.12908,129.80595 113.48758,130.166 114.69788,130.8861 C 115.90818,131.60715 116.83063,132.61035 117.46618,133.89855 C 118.10173,135.18675 118.41808,136.64785 118.41808,138.27995 C 118.41808,139.9358 118.08367,141.41685 117.41583,142.7231 C 116.74798,144.02935 115.80083,145.01925 114.57533,145.6909 C 113.34983,146.36255 112.02838,146.69885 110.61003,146.69885 C 109.07292,146.69885 107.69922,146.3274 106.48893,145.58545 C 105.27863,144.8435 104.36188,143.8289 103.73772,142.54545 C 103.11358,141.262 102.80197,139.9016 102.80197,138.469 z M 105.02878,138.49655 C 105.02878,140.46305 105.55792,142.0125 106.61623,143.1449 C 107.67453,144.2773 109.00263,144.84255 110.59863,144.84255 C 112.22503,144.84255 113.56358,144.27065 114.61523,143.1278 C 115.66593,141.98495 116.19128,140.3633 116.19128,138.26285 C 116.19128,136.93475 115.96708,135.7748 115.51773,134.78395 C 115.06838,133.7931 114.41098,133.02455 113.54552,132.47925 C 112.68008,131.93395 111.70918,131.6613 110.63283,131.6613 C 109.10333,131.6613 107.78663,132.18665 106.68368,133.2364 C 105.58073,134.28615 105.02878,136.03985 105.02878,138.49655 z"
   id="path13" />
<path
   id="polygon15"
   d="M 119.80128,142.90075 L 120.51378,141.42825 L 159.22627,160.66575 L 160.03378,161.94825 L 158.84628,162.28075 L 119.80128,142.90075 z"
   style="fill:#231f20;stroke:#000000;stroke-opacity:1" />
<path
   id="polygon17"
   d="M 61.185325,124.70825 L 62.801275,123.75825 L 62.801275,160.61825 L 61.992825,161.94825 L 61.185325,162.13825 L 61.185325,124.70825 z"
   style="fill:#231f20;stroke:#000000;stroke-opacity:1" />
<path
   style="fill:#231f20;stroke:#000000;stroke-opacity:1"
   d="M 127.69102,243.1115 C 127.69102,240.40115 128.41872,238.28075 129.87508,236.7484 C 131.32953,235.2151 133.20958,234.44845 135.51047,234.44845 C 137.01908,234.44845 138.37758,234.8085 139.58692,235.5286 C 140.79722,236.24965 141.72063,237.25285 142.35523,238.54105 C 142.98983,239.82925 143.30713,241.29035 143.30713,242.92245 C 143.30713,244.5783 142.97272,246.05935 142.30488,247.3656 C 141.63702,248.67185 140.68988,249.66175 139.46437,250.3334 C 138.23983,251.00505 136.91743,251.34135 135.49908,251.34135 C 133.96293,251.34135 132.58828,250.9699 131.37797,250.22795 C 130.16768,249.486 129.25188,248.4714 128.62678,247.18795 C 128.00168,245.9045 127.69102,244.54505 127.69102,243.1115 z M 129.91782,243.13905 C 129.91782,245.10555 130.44698,246.655 131.50623,247.7874 C 132.56358,248.91885 133.89262,249.48505 135.48767,249.48505 C 137.11503,249.48505 138.45263,248.91315 139.50522,247.7703 C 140.55497,246.62745 141.08032,245.0058 141.08032,242.90535 C 141.08032,241.57725 140.85612,240.4173 140.40677,239.42645 C 139.95743,238.4356 139.30003,237.66705 138.43457,237.12175 C 137.57008,236.57645 136.59918,236.3038 135.52187,236.3038 C 133.99333,236.3038 132.67568,236.82915 131.57368,237.8789 C 130.46883,238.9296 129.91782,240.68235 129.91782,243.13905 z"
   id="path21" /><path
   style="fill:#231f20;stroke:#000000;stroke-opacity:1"
   d="M 146.16757,251.05825 L 146.16757,234.72965 L 148.33453,234.72965 L 148.33453,241.4395 L 156.78098,241.4395 L 156.78098,234.72965 L 158.94793,234.72965 L 158.94793,251.05825 L 156.78098,251.05825 L 156.78098,243.36895 L 148.33453,243.36895 L 148.33453,251.05825 L 146.16757,251.05825 z"
   id="path23" />
<path
   id="polygon25"
   d="M 136.33032,232.29575 L 134.71627,232.29575 L 134.71627,206.83575 L 135.52283,204.41325 L 136.33032,210.87325 L 136.33032,232.29575 z"
   style="fill:#231f20;stroke:#000000;stroke-opacity:1" />
<path
   style="fill:#231f20;stroke:#000000;stroke-opacity:1"
   d="M 78.719475,243.1115 C 78.719475,240.40115 79.447175,238.28075 80.902575,236.7484 C 82.357975,235.2151 84.237075,234.44845 86.538925,234.44845 C 88.046575,234.44845 89.405075,234.8085 90.615375,235.5286 C 91.825675,236.24965 92.748125,237.25285 93.383675,238.54105 C 94.019225,239.82925 94.335575,241.29035 94.335575,242.92245 C 94.335575,244.5783 94.001175,246.05935 93.333325,247.3656 C 92.665475,248.67185 91.718325,249.66175 90.492825,250.3334 C 89.267325,251.00505 87.945875,251.34135 86.527525,251.34135 C 84.990425,251.34135 83.616725,250.9699 82.406425,250.22795 C 81.196125,249.486 80.279375,248.4714 79.655225,247.18795 C 79.031075,245.9045 78.719475,244.54505 78.719475,243.1115 z M 80.946275,243.13905 C 80.946275,245.10555 81.475425,246.655 82.533725,247.7874 C 83.592025,248.9198 84.920125,249.48505 86.516125,249.48505 C 88.142525,249.48505 89.481075,248.91315 90.532725,247.7703 C 91.583425,246.62745 92.108775,245.0058 92.108775,242.90535 C 92.108775,241.57725 91.884575,240.4173 91.435225,239.42645 C 90.985875,238.4356 90.328475,237.66705 89.463025,237.12175 C 88.597575,236.57645 87.626675,236.3038 86.550325,236.3038 C 85.020825,236.3038 83.704125,236.82915 82.601175,237.8789 C 81.498225,238.92865 80.946275,240.68235 80.946275,243.13905 z"
   id="path29" /><path
   style="fill:#231f20;stroke:#000000;stroke-opacity:1"
   d="M 97.196025,251.05825 L 97.196025,234.72965 L 99.362975,234.72965 L 99.362975,241.4395 L 107.80943,241.4395 L 107.80943,234.72965 L 109.97638,234.72965 L 109.97638,251.05825 L 107.80943,251.05825 L 107.80943,243.36895 L 99.362975,243.36895 L 99.362975,251.05825 L 97.196025,251.05825 z"
   id="path31" />
<path
   id="polygon33"
   d="M 87.310325,232.29575 L 85.696275,232.29575 L 85.696275,210.87325 L 86.503775,204.41325 L 87.310325,206.83575 L 87.310325,232.29575 z"
   style="fill:#231f20;stroke:#000000;stroke-opacity:1" />
<path
   id="polygon35"
   d="M 159.22627,135.39575 L 160.84127,135.39575 L 160.84127,162.13825 L 160.03378,161.94825 L 159.22627,160.66575 L 159.22627,135.39575 z"
   style="fill:#231f20;stroke:#000000;stroke-opacity:1" />
<path
   style="fill:#231f20;stroke:#000000;stroke-opacity:1"
   d="M 5.978925,114.40075 L 5.978925,98.07215 L 8.145875,98.07215 L 8.145875,104.782 L 16.592325,104.782 L 16.592325,98.07215 L 18.759275,98.07215 L 18.759275,114.40075 L 16.592325,114.40075 L 16.592325,106.71145 L 8.145875,106.71145 L 8.145875,114.40075 L 5.978925,114.40075 z"
   id="path39" /><path
   style="fill:#231f20;stroke:#000000;stroke-opacity:1"
   d="M 21.702375,106.45305 C 21.702375,103.7427 22.430075,101.6223 23.885475,100.08995 C 25.340875,98.55665 27.219975,97.79 29.521825,97.79 C 31.029475,97.79 32.387975,98.15005 33.598275,98.87015 C 34.808575,99.5912 35.731025,100.5944 36.366575,101.8826 C 37.002125,103.1708 37.318475,104.6319 37.318475,106.264 C 37.318475,107.91985 36.984075,109.4009 36.316225,110.70715 C 35.648375,112.0134 34.701225,113.0033 33.475725,113.67495 C 32.250225,114.3466 30.928775,114.6829 29.510425,114.6829 C 27.973325,114.6829 26.599625,114.31145 25.389325,113.5695 C 24.179025,112.82755 23.262275,111.81295 22.638125,110.5295 C 22.013975,109.24605 21.702375,107.8866 21.702375,106.45305 z M 23.929175,106.48155 C 23.929175,108.44805 24.458325,109.9975 25.516625,111.1299 C 26.574925,112.2623 27.903025,112.82755 29.499025,112.82755 C 31.125425,112.82755 32.463975,112.25565 33.515625,111.1128 C 34.566325,109.96995 35.091675,108.3483 35.091675,106.24785 C 35.091675,104.91975 34.867475,103.7598 34.418125,102.76895 C 33.968775,101.7781 33.311375,101.00955 32.445925,100.46425 C 31.580475,99.91895 30.609575,99.6463 29.533225,99.6463 C 28.003725,99.6463 26.687025,100.17165 25.584075,101.2214 C 24.481125,102.27115 23.929175,104.02485 23.929175,106.48155 z"
   id="path41" />
<path
   id="polygon43"
   d="M 38.291275,111.50325 L 39.097825,110.07825 L 62.801275,123.75825 L 61.185325,124.70825 L 38.291275,111.50325 z"
   style="fill:#231f20;stroke:#000000;stroke-opacity:1" />
<path
   style="fill:#231f20;stroke:#000000;stroke-opacity:1"
   d="M 186.18443,76.63825 L 186.18443,60.30965 L 188.40742,60.30965 L 196.96122,73.1242 L 196.96122,60.30965 L 199.03983,60.30965 L 199.03983,76.63825 L 196.81682,76.63825 L 188.26302,63.8237 L 188.26302,76.63825 L 186.18443,76.63825 z"
   id="path47" />
<path
   style="fill:#231f20;stroke:#000000;stroke-opacity:1"
   d="M 153.55288,133.21075 L 153.55288,116.88215 L 155.77588,116.88215 L 164.32968,129.6967 L 164.32968,116.88215 L 166.40828,116.88215 L 166.40828,133.21075 L 164.18527,133.21075 L 155.63147,120.3962 L 155.63147,133.21075 L 153.55288,133.21075 z"
   id="path51" />
<path
   id="polygon53"
   d="M 193.42628,105.80325 L 191.81033,104.90075 L 191.81033,78.77575 L 193.42628,78.77575 L 193.42628,105.80325 z"
   style="fill:#231f20;stroke:#000000;stroke-opacity:1" />
<path
   id="polygon55"
   d="M 170.19782,119.29325 L 169.39128,117.86825 L 191.81033,104.90075 L 193.42628,105.80325 L 170.19782,119.29325 z"
   style="fill:#231f20;stroke:#000000;stroke-opacity:1" />
<path
   id="polygon57"
   d="M 126.54627,105.80325 L 128.16033,104.90075 L 150.62878,117.86825 L 149.82128,119.29325 L 126.54627,105.80325 z"
   style="fill:#231f20;stroke:#000000;stroke-opacity:1" />
<path
   id="polygon59"
   d="M 126.54627,67.18575 L 128.16033,68.13575 L 128.16033,104.90075 L 126.54627,105.80325 L 126.54627,67.18575 z"
   style="fill:#231f20;stroke:#000000;stroke-opacity:1" />
<path
   id="rect61"
   d="M 132.19782,70.93825 L 133.81283,70.93825 L 133.81283,102.09825 L 132.19782,102.09825 L 132.19782,70.93825 z"
   style="fill:#231f20;stroke:#000000;stroke-opacity:1" />
<path
   id="polygon63"
   d="M 159.22627,48.37575 L 160.03378,48.85075 L 160.03378,49.75325 L 128.16033,68.13575 L 126.54627,67.18575 L 159.22627,48.37575 z"
   style="fill:#231f20;stroke:#000000;stroke-opacity:1" />
<path
   id="polygon65"
   d="M 160.03378,49.75325 L 160.03378,48.85075 L 160.84127,48.37575 L 183.21377,61.29575 L 182.40533,62.67325 L 160.03378,49.75325 z"
   style="fill:#231f20;stroke:#000000;stroke-opacity:1" />
<path
   id="polygon67"
   d="M 159.60532,56.07075 L 160.41377,54.64575 L 180.41033,66.18825 L 179.60378,67.61325 L 159.60532,56.07075 z"
   style="fill:#231f20;stroke:#000000;stroke-opacity:1" />
<path
   style="fill:#231f20;stroke:#000000;stroke-opacity:1"
   d="M 153.55288,22.77325 L 153.55288,6.44465 L 155.77588,6.44465 L 164.32968,19.2592 L 164.32968,6.44465 L 166.40828,6.44465 L 166.40828,22.77325 L 164.18527,22.77325 L 155.63147,9.9587 L 155.63147,22.77325 L 153.55288,22.77325 z"
   id="path71" /><path
   style="fill:#231f20;stroke:#000000;stroke-opacity:1"
   d="M 170.12183,22.77325 L 170.12183,6.44465 L 172.28877,6.44465 L 172.28877,13.1545 L 180.73523,13.1545 L 180.73523,6.44465 L 182.90218,6.44465 L 182.90218,22.77325 L 180.73523,22.77325 L 180.73523,15.08395 L 172.28877,15.08395 L 172.28877,22.77325 L 170.12183,22.77325 z"
   id="path73" />
<path
   style="fill:#231f20;stroke:#000000;stroke-opacity:1"
   d="M 193.14507,25.609 L 193.14507,27.0492 L 185.04063,27.0492 C 185.02922,26.68725 185.08908,26.33955 185.21732,26.00515 C 185.42538,25.45415 185.75693,24.9117 186.21388,24.3778 C 186.67083,23.8439 187.32537,23.22735 188.18037,22.52815 C 189.50563,21.4328 190.40528,20.56735 190.87838,19.93085 C 191.35147,19.29435 191.58707,18.6911 191.58707,18.123 C 191.58707,17.5283 191.37332,17.02765 190.94583,16.6182 C 190.51833,16.2097 189.96162,16.00545 189.27287,16.00545 C 188.54518,16.00545 187.96472,16.223 187.52867,16.65905 C 187.09262,17.0951 186.87222,17.69835 186.86652,18.4688 L 185.32277,18.3054 C 185.42822,17.1502 185.82722,16.2705 186.51978,15.6663 C 187.21232,15.0602 188.14142,14.7581 189.30707,14.7581 C 190.48413,14.7581 191.41702,15.08395 192.10198,15.73565 C 192.78787,16.38735 193.13083,17.19485 193.13083,18.15815 C 193.13083,18.64835 193.03107,19.13 192.83062,19.6031 C 192.62922,20.0762 192.29577,20.57495 191.83028,21.0984 C 191.36288,21.62185 190.59053,22.34005 189.51132,23.253 C 188.60882,24.0111 188.02838,24.5241 187.77093,24.79485 C 187.51347,25.0637 187.29972,25.3354 187.13063,25.60805 L 193.14507,25.60805 L 193.14507,25.609 z"
   id="path77" />
<path
   id="polygon79"
   d="M 159.22627,24.91075 L 160.84127,24.91075 L 160.84127,48.37575 L 160.03378,48.85075 L 159.22627,48.37575 L 159.22627,24.91075 z"
   style="fill:#231f20;stroke:#000000;stroke-opacity:1" />
<path
   style="fill:#231f20;stroke:#000000;stroke-opacity:1"
   d="M 217.56197,125.26305 C 217.56197,122.5527 218.28968,120.4323 219.74507,118.89995 C 221.20048,117.36665 223.07957,116.6 225.38142,116.6 C 226.88908,116.6 228.24758,116.96005 229.45788,117.68015 C 230.66817,118.4012 231.59062,119.4044 232.22522,120.6926 C 232.86078,121.97985 233.17808,123.4419 233.17808,125.074 C 233.17808,126.72985 232.84368,128.2109 232.17487,129.51715 C 231.50702,130.8234 230.56082,131.8133 229.33532,132.48495 C 228.10983,133.1566 226.78838,133.4929 225.37002,133.4929 C 223.83292,133.4929 222.45923,133.12145 221.24892,132.3795 C 220.03862,131.63755 219.12187,130.62295 218.49773,129.3395 C 217.87357,128.0551 217.56197,126.6966 217.56197,125.26305 z M 219.78877,125.29155 C 219.78877,127.25805 220.31793,128.8075 221.37623,129.9399 C 222.43453,131.0723 223.76263,131.63755 225.35862,131.63755 C 226.98503,131.63755 228.32358,131.06565 229.37523,129.9228 C 230.42497,128.77995 230.95127,127.1583 230.95127,125.05785 C 230.95127,123.72975 230.72707,122.5698 230.27678,121.57895 C 229.82743,120.5881 229.17097,119.81955 228.30552,119.27425 C 227.44007,118.72895 226.46918,118.4563 225.39282,118.4563 C 223.86333,118.4563 222.54663,118.98165 221.44368,120.0314 C 220.34072,121.08115 219.78877,122.83485 219.78877,125.29155 z"
   id="path83" />
<path
   id="polygon85"
   d="M 218.60127,116.11075 L 217.79282,117.53575 L 192.23878,102.76325 L 193.04628,101.38575 L 218.60127,116.11075 z"
   style="fill:#231f20;stroke:#000000;stroke-opacity:1" />
<path
   id="polygon87"
   d="M 215.75127,121.05075 L 214.94282,122.42825 L 189.38877,107.70325 L 190.19628,106.27825 L 215.75127,121.05075 z"
   style="fill:#231f20;stroke:#000000;stroke-opacity:1" />
</svg>
