<?xml version="1.0" encoding="UTF-8" standalone="no"?>
<svg
   xmlns:dc="http://purl.org/dc/elements/1.1/"
   xmlns:cc="http://creativecommons.org/ns#"
   xmlns:rdf="http://www.w3.org/1999/02/22-rdf-syntax-ns#"
   xmlns:svg="http://www.w3.org/2000/svg"
   xmlns="http://www.w3.org/2000/svg"
   xmlns:sodipodi="http://sodipodi.sourceforge.net/DTD/sodipodi-0.dtd"
   xmlns:inkscape="http://www.inkscape.org/namespaces/inkscape"
   version="1.1"
   id="Layer_1"
   width="337.967"
   height="253.282"
   viewBox="0 0 337.967 253.282"
   style="overflow:visible;enable-background:new 0 0 337.967 253.282;"
   xml:space="preserve"
   sodipodi:version="0.32"
   inkscape:version="1.0 (4035a4fb49, 2020-05-01)"
   sodipodi:docname="guanosin.svg"
   inkscape:output_extension="org.inkscape.output.svg.inkscape"
   inkscape:export-filename="C:\Users\neomo\Documents\GitHub\ky-nf-capstone\base_img\guanosin.png"
   inkscape:export-xdpi="298.07312"
   inkscape:export-ydpi="298.07312"><metadata
   id="metadata112"><rdf:RDF><cc:Work
       rdf:about=""><dc:format>image/svg+xml</dc:format><dc:type
         rdf:resource="http://purl.org/dc/dcmitype/StillImage" /></cc:Work></rdf:RDF></metadata><defs
   id="defs110"><inkscape:perspective
   sodipodi:type="inkscape:persp3d"
   inkscape:vp_x="0 : 126.641 : 1"
   inkscape:vp_y="0 : 1000 : 0"
   inkscape:vp_z="337.96701 : 126.641 : 1"
   inkscape:persp3d-origin="168.98351 : 84.427333 : 1"
   id="perspective114" />
	

	
	

	
	

	
	

	
	

	

	

	

	

	
	

	
</defs><sodipodi:namedview
   inkscape:window-height="1017"
   inkscape:window-width="1920"
   inkscape:pageshadow="2"
   inkscape:pageopacity="0.0"
   guidetolerance="10.0"
   gridtolerance="10.0"
   objecttolerance="10.0"
   borderopacity="1.0"
   bordercolor="#666666"
   pagecolor="#ffffff"
   id="base"
   showgrid="false"
   inkscape:zoom="1.6096246"
   inkscape:cx="168.98351"
   inkscape:cy="126.641"
   inkscape:window-x="-8"
   inkscape:window-y="-8"
   inkscape:current-layer="Layer_1"
   inkscape:document-rotation="0"
   inkscape:window-maximized="1" />
<path
   style="fill:#231f20;stroke:#000000;stroke-opacity:1"
   d="M 135.23807,197.55187 L 137.99307,199.97532 L 137.18652,202.39782 L 89.780575,202.39782 L 88.974025,199.97532 L 91.729025,197.55187 L 135.23807,197.55187 z"
   id="polygon3" />
<path
   style="fill:#231f20;stroke:#000000;stroke-opacity:1"
   d="M 63.655575,157.74782 L 64.463075,157.55782 L 65.650575,157.84282 L 91.729025,197.55187 L 88.974025,199.97532 L 88.166525,206.48282 L 63.655575,157.74782 z"
   id="polygon5" />
<path
   style="fill:#231f20;stroke:#000000;stroke-opacity:1"
   d="M 161.31652,157.84282 L 162.50402,157.55782 L 163.31152,157.74782 L 138.80057,206.48282 L 137.99307,199.97532 L 135.23807,197.55187 L 161.31652,157.84282 z"
   id="polygon7" />
<path
   style="fill:#231f20;stroke:#000000;stroke-opacity:1"
   d="M 103.27152,137.08532 L 103.98402,138.55782 L 65.650575,157.84282 L 64.463075,157.55782 L 65.271525,156.22687 L 103.27152,137.08532 z"
   id="polygon9" />
<path
   id="path13"
   d="M 105.27222,134.07857 C 105.27222,131.36822 105.99992,129.24782 107.45532,127.71547 C 108.91072,126.18217 110.78982,125.41552 113.09167,125.41552 C 114.59932,125.41552 115.95782,125.77557 117.16812,126.49567 C 118.37842,127.21672 119.30087,128.21992 119.93642,129.50812 C 120.57197,130.79632 120.88832,132.25742 120.88832,133.88952 C 120.88832,135.54537 120.55392,137.02642 119.88607,138.33267 C 119.21822,139.63892 118.27107,140.62882 117.04557,141.30047 C 115.82007,141.97212 114.49862,142.30842 113.08027,142.30842 C 111.54317,142.30842 110.16947,141.93697 108.95917,141.19502 C 107.74887,140.45307 106.83212,139.43847 106.20797,138.15502 C 105.58382,136.87157 105.27222,135.51212 105.27222,134.07857 z M 107.49902,134.10612 C 107.49902,136.07262 108.02817,137.62207 109.08647,138.75447 C 110.14477,139.88687 111.47287,140.45212 113.06887,140.45212 C 114.69527,140.45212 116.03382,139.88022 117.08547,138.73737 C 118.13617,137.59452 118.66152,135.97287 118.66152,133.87242 C 118.66152,132.54432 118.43732,131.38437 117.98797,130.39352 C 117.53862,129.40267 116.88122,128.63412 116.01577,128.08882 C 115.15032,127.54352 114.17942,127.27087 113.10307,127.27087 C 111.57357,127.27087 110.25687,127.79622 109.15392,128.84597 C 108.05097,129.89572 107.49902,131.64942 107.49902,134.10612 z"
   style="fill:#231f20;stroke:#000000;stroke-opacity:1" />
<path
   style="fill:#231f20;stroke:#000000;stroke-opacity:1"
   d="M 122.27152,138.51032 L 122.98402,137.03782 L 161.69652,156.22687 L 162.50402,157.55782 L 161.31652,157.84282 L 122.27152,138.51032 z"
   id="polygon15" />
<path
   style="fill:#231f20;stroke:#000000;stroke-opacity:1"
   d="M 63.655575,120.31782 L 65.271525,119.36782 L 65.271525,156.22687 L 64.463075,157.55782 L 63.655575,157.74782 L 63.655575,120.31782 z"
   id="polygon17" />
<path
   id="path21"
   d="M 130.16222,238.72107 C 130.16222,236.01072 130.88992,233.89032 132.34532,232.35797 C 133.80072,230.82467 135.67982,230.05802 137.98167,230.05802 C 139.48932,230.05802 140.84782,230.41807 142.05812,231.13817 C 143.26842,231.85922 144.19087,232.86242 144.82643,234.15062 C 145.46197,235.43882 145.77832,236.89992 145.77832,238.53202 C 145.77832,240.18787 145.44393,241.66892 144.77607,242.97517 C 144.10822,244.28142 143.16107,245.27132 141.93557,245.94297 C 140.71007,246.61462 139.38862,246.95092 137.97027,246.95092 C 136.43317,246.95092 135.05947,246.57947 133.84917,245.83752 C 132.63887,245.09557 131.72212,244.08097 131.09797,242.79752 C 130.47382,241.51407 130.16222,240.15462 130.16222,238.72107 z M 132.38807,238.74862 C 132.38807,240.71512 132.91723,242.26457 133.97553,243.39697 C 135.03383,244.52937 136.36192,245.09462 137.95792,245.09462 C 139.58432,245.09462 140.92287,244.52272 141.97452,243.37987 C 143.02522,242.23702 143.55057,240.61537 143.55057,238.51492 C 143.55057,237.18682 143.32637,236.02687 142.87702,235.03602 C 142.42767,234.04517 141.77027,233.27662 140.90482,232.73132 C 140.03937,232.18602 139.06847,231.91337 137.99212,231.91337 C 136.46262,231.91337 135.14593,232.43872 134.04297,233.48847 C 132.94002,234.53822 132.38807,236.29192 132.38807,238.74862 z"
   style="fill:#231f20;stroke:#000000;stroke-opacity:1" /><path
   id="path23"
   d="M 148.63877,246.66782 L 148.63877,230.33922 L 150.80572,230.33922 L 150.80572,237.04907 L 159.25217,237.04907 L 159.25217,230.33922 L 161.41912,230.33922 L 161.41912,246.66782 L 159.25217,246.66782 L 159.25217,238.97852 L 150.80572,238.97852 L 150.80572,246.66782 L 148.63877,246.66782 z"
   style="fill:#231f20;stroke:#000000;stroke-opacity:1" />
<path
   style="fill:#231f20;stroke:#000000;stroke-opacity:1"
   d="M 138.80057,227.90532 L 137.18652,227.90532 L 137.18652,202.39782 L 137.99307,199.97532 L 138.80057,206.48282 L 138.80057,227.90532 z"
   id="polygon25" />
<path
   id="path29"
   d="M 81.189725,238.72107 C 81.189725,236.01072 81.917425,233.89032 83.372825,232.35797 C 84.828225,230.82467 86.707325,230.05802 89.009175,230.05802 C 90.516825,230.05802 91.875325,230.41807 93.085625,231.13817 C 94.295925,231.85922 95.218375,232.86242 95.853925,234.15062 C 96.489475,235.43882 96.805825,236.89992 96.805825,238.53202 C 96.805825,240.18787 96.471425,241.66892 95.803575,242.97517 C 95.135725,244.28142 94.188575,245.27132 92.963075,245.94297 C 91.737575,246.61462 90.416125,246.95092 88.997775,246.95092 C 87.460675,246.95092 86.086975,246.57947 84.876675,245.83752 C 83.666375,245.09557 82.749625,244.08097 82.125475,242.79752 C 81.501325,241.51407 81.189725,240.15462 81.189725,238.72107 z M 83.416525,238.74862 C 83.416525,240.71512 83.945675,242.26457 85.003975,243.39697 C 86.062275,244.52937 87.390375,245.09462 88.986375,245.09462 C 90.612775,245.09462 91.951325,244.52272 93.002975,243.37987 C 94.053675,242.23702 94.579025,240.61537 94.579025,238.51492 C 94.579025,237.18682 94.354825,236.02687 93.905475,235.03602 C 93.456125,234.04517 92.798725,233.27662 91.933275,232.73132 C 91.067825,232.18602 90.096925,231.91337 89.020575,231.91337 C 87.491075,231.91337 86.174375,232.43872 85.071425,233.48847 C 83.968475,234.53822 83.416525,236.29192 83.416525,238.74862 z"
   style="fill:#231f20;stroke:#000000;stroke-opacity:1" /><path
   id="path31"
   d="M 99.666275,246.66782 L 99.666275,230.33922 L 101.83322,230.33922 L 101.83322,237.04907 L 110.27967,237.04907 L 110.27967,230.33922 L 112.44662,230.33922 L 112.44662,246.66782 L 110.27967,246.66782 L 110.27967,238.97852 L 101.83322,238.97852 L 101.83322,246.66782 L 99.666275,246.66782 z"
   style="fill:#231f20;stroke:#000000;stroke-opacity:1" />
<path
   style="fill:#231f20;stroke:#000000;stroke-opacity:1"
   d="M 89.780575,227.90532 L 88.166525,227.90532 L 88.166525,206.48282 L 88.974025,199.97532 L 89.780575,202.39782 L 89.780575,227.90532 z"
   id="polygon33" />
<path
   style="fill:#231f20;stroke:#000000;stroke-opacity:1"
   d="M 161.69652,130.95782 L 163.31152,130.95782 L 163.31152,157.74782 L 162.50402,157.55782 L 161.69652,156.22687 L 161.69652,130.95782 z"
   id="polygon35" />
<path
   id="path39"
   d="M 8.449175,110.01032 L 8.449175,93.681725 L 10.616125,93.681725 L 10.616125,100.39157 L 19.062575,100.39157 L 19.062575,93.681725 L 21.229525,93.681725 L 21.229525,110.01032 L 19.062575,110.01032 L 19.062575,102.32102 L 10.616125,102.32102 L 10.616125,110.01032 L 8.449175,110.01032 z"
   style="fill:#231f20;stroke:#000000;stroke-opacity:1" /><path
   id="path41"
   d="M 24.172625,102.06357 C 24.172625,99.353225 24.900325,97.232825 26.355725,95.700475 C 27.811125,94.167175 29.690225,93.400525 31.992075,93.400525 C 33.499725,93.400525 34.858225,93.760575 36.068525,94.480675 C 37.278825,95.201725 38.201275,96.204925 38.836825,97.493125 C 39.472375,98.781325 39.788725,100.24242 39.788725,101.87452 C 39.788725,103.53037 39.454325,105.01142 38.786475,106.31767 C 38.118625,107.62392 37.171475,108.61382 35.945975,109.28547 C 34.720475,109.95712 33.399025,110.29342 31.980675,110.29342 C 30.443575,110.29342 29.069875,109.92197 27.859575,109.18002 C 26.649275,108.43807 25.732525,107.42347 25.108375,106.14002 C 24.484225,104.85657 24.172625,103.49617 24.172625,102.06357 z M 26.399425,102.09112 C 26.399425,104.05762 26.928575,105.60707 27.986875,106.73947 C 29.045175,107.87187 30.373275,108.43712 31.969275,108.43712 C 33.595675,108.43712 34.934225,107.86522 35.985875,106.72237 C 37.036575,105.57952 37.561925,103.95787 37.561925,101.85742 C 37.561925,100.52932 37.337725,99.369375 36.888375,98.378525 C 36.439025,97.387675 35.781625,96.619125 34.916175,96.073825 C 34.050725,95.528525 33.079825,95.255875 32.003475,95.255875 C 30.473975,95.255875 29.157275,95.781225 28.054325,96.830975 C 26.951375,97.880725 26.399425,99.634425 26.399425,102.09112 z"
   style="fill:#231f20;stroke:#000000;stroke-opacity:1" />
<path
   style="fill:#231f20;stroke:#000000;stroke-opacity:1"
   d="M 40.761525,107.11282 L 41.568075,105.68782 L 65.271525,119.36782 L 63.655575,120.31782 L 40.761525,107.11282 z"
   id="polygon43" />
<path
   id="path47"
   d="M 257.19812,79.467825 L 257.19812,63.140175 L 259.42112,63.140175 L 267.97492,75.954725 L 267.97492,63.140175 L 270.05352,63.140175 L 270.05352,79.468775 L 267.83052,79.468775 L 259.27672,66.654225 L 259.27672,79.468775 L 257.19812,79.468775 L 257.19812,79.467825 z"
   style="fill:#231f20;stroke:#000000;stroke-opacity:1" /><path
   id="path49"
   d="M 273.76707,79.467825 L 273.76707,63.140175 L 275.93402,63.140175 L 275.93402,69.850025 L 284.38047,69.850025 L 284.38047,63.140175 L 286.54742,63.140175 L 286.54742,79.468775 L 284.38047,79.468775 L 284.38047,71.779475 L 275.93402,71.779475 L 275.93402,79.468775 L 273.76707,79.468775 L 273.76707,79.467825 z"
   style="fill:#231f20;stroke:#000000;stroke-opacity:1" />
<path
   id="path53"
   d="M 224.56562,136.08782 L 224.56562,119.75922 L 226.78862,119.75922 L 235.34242,132.57377 L 235.34242,119.75922 L 237.42102,119.75922 L 237.42102,136.08782 L 235.19802,136.08782 L 226.64422,123.27327 L 226.64422,136.08782 L 224.56562,136.08782 L 224.56562,136.08782 z"
   style="fill:#231f20;stroke:#000000;stroke-opacity:1" />
<path
   style="fill:#231f20;stroke:#000000;stroke-opacity:1"
   d="M 264.43807,107.73032 L 263.63057,108.20532 L 262.82402,107.73032 L 262.82402,81.605325 L 264.43807,81.605325 L 264.43807,107.73032 z"
   id="polygon55" />
<path
   style="fill:#231f20;stroke:#000000;stroke-opacity:1"
   d="M 241.21152,122.12282 L 240.35557,120.74532 L 262.82402,107.73032 L 263.63057,108.20532 L 263.63057,109.10782 L 241.21152,122.12282 z"
   id="polygon57" />
<path
   style="fill:#231f20;stroke:#000000;stroke-opacity:1"
   d="M 238.36152,117.23032 L 237.55402,115.85282 L 257.59902,104.21532 L 258.40557,105.64032 L 238.36152,117.23032 z"
   id="polygon59" />
<path
   style="fill:#231f20;stroke:#000000;stroke-opacity:1"
   d="M 198.22402,109.06032 L 198.31807,108.20532 L 199.12557,107.73032 L 221.59307,120.74532 L 220.78652,122.12282 L 198.22402,109.06032 z"
   id="polygon61" />
<path
   style="fill:#231f20;stroke:#000000;stroke-opacity:1"
   d="M 197.51152,71.107825 L 198.31807,70.490325 L 199.12557,70.965325 L 199.12557,107.73032 L 198.31807,108.20532 L 197.51152,107.58782 L 197.51152,71.107825 z"
   id="polygon63" />
<path
   style="fill:#231f20;stroke:#000000;stroke-opacity:1"
   d="M 203.16308,73.767826 L 204.77903,73.767826 L 204.77903,104.92782 L 203.16308,104.92782 L 203.16308,73.767826 z"
   id="rect65" />
<path
   style="fill:#231f20;stroke:#000000;stroke-opacity:1"
   d="M 230.99902,50.730325 L 230.99902,52.582825 L 199.12557,70.965325 L 198.31807,70.490325 L 198.22402,69.635325 L 230.99902,50.730325 z"
   id="polygon67" />
<path
   style="fill:#231f20;stroke:#000000;stroke-opacity:1"
   d="M 230.99902,52.582825 L 230.99902,50.730325 L 254.22557,64.125325 L 253.41807,65.550325 L 230.99902,52.582825 z"
   id="polygon69" />
<path
   id="path73"
   d="M 156.02312,128.82032 L 156.02312,112.49172 L 158.24612,112.49172 L 166.79992,125.30627 L 166.79992,112.49172 L 168.87852,112.49172 L 168.87852,128.82032 L 166.65552,128.82032 L 158.10172,116.00577 L 158.10172,128.82032 L 156.02312,128.82032 z"
   style="fill:#231f20;stroke:#000000;stroke-opacity:1" />
<path
   id="path77"
   d="M 156.02312,67.829375 L 156.02312,51.501725 L 158.24612,51.501725 L 166.79992,64.316275 L 166.79992,51.501725 L 168.87852,51.501725 L 168.87852,67.830325 L 166.65552,67.830325 L 158.10172,55.015775 L 158.10172,67.830325 L 156.02312,67.830325 L 156.02312,67.829375 z"
   style="fill:#231f20;stroke:#000000;stroke-opacity:1" />
<path
   style="fill:#231f20;stroke:#000000;stroke-opacity:1"
   d="M 172.14652,117.56282 L 171.62402,116.04282 L 197.51152,107.58782 L 198.31807,108.20532 L 198.22402,109.06032 L 172.14652,117.56282 z"
   id="polygon79" />
<path
   style="fill:#231f20;stroke:#000000;stroke-opacity:1"
   d="M 139.32402,89.347825 L 141.31807,89.347825 L 156.13807,109.72532 L 154.80902,110.67532 L 139.32402,89.347825 z"
   id="polygon81" />
<path
   style="fill:#231f20;stroke:#000000;stroke-opacity:1"
   d="M 154.04902,69.065325 L 155.37902,70.015325 L 141.31807,89.347825 L 139.32402,89.347825 L 154.04902,69.065325 z"
   id="polygon83" />
<path
   style="fill:#231f20;stroke:#000000;stroke-opacity:1"
   d="M 158.65557,72.390325 L 159.93807,73.340325 L 147.96807,89.822825 L 146.63807,88.872825 L 158.65557,72.390325 z"
   id="polygon85" />
<path
   style="fill:#231f20;stroke:#000000;stroke-opacity:1"
   d="M 171.62402,62.652825 L 172.14652,61.132825 L 198.22402,69.635325 L 198.31807,70.490325 L 197.51152,71.107825 L 171.62402,62.652825 z"
   id="polygon87" />
<path
   id="path91"
   d="M 223.21472,14.995125 C 223.21472,12.284775 223.94242,10.164375 225.39687,8.632025 C 226.85322,7.098725 228.73137,6.332075 231.03417,6.332075 C 232.54087,6.332075 233.90032,6.692125 235.11062,7.412225 C 236.31997,8.133275 237.24242,9.136475 237.87797,10.424675 C 238.51352,11.712875 238.83082,13.173975 238.83082,14.806075 C 238.83082,16.461925 238.49642,17.942975 237.82762,19.249225 C 237.15882,20.555475 236.21262,21.545375 234.98807,22.217025 C 233.76162,22.888675 232.44017,23.224975 231.02277,23.224975 C 229.48472,23.224975 228.11197,22.853525 226.90167,22.111575 C 225.69042,21.369625 224.77367,20.355025 224.15047,19.071575 C 223.52727,17.788125 223.21472,16.428675 223.21472,14.995125 z M 225.44152,15.022675 C 225.44152,16.989175 225.97067,18.538625 227.02802,19.671025 C 228.08727,20.802475 229.41442,21.368675 231.01137,21.368675 C 232.63682,21.368675 233.97632,20.796775 235.02702,19.653925 C 236.07772,18.511075 236.60402,16.889425 236.60402,14.788975 C 236.60402,13.460875 236.37982,12.300925 235.92952,11.310075 C 235.47922,10.319225 234.82277,9.550675 233.95827,9.005375 C 233.09282,8.460075 232.12097,8.187425 231.04557,8.187425 C 229.51512,8.187425 228.19937,8.712775 227.09547,9.762525 C 225.99252,10.813225 225.44152,12.566925 225.44152,15.022675 z"
   style="fill:#231f20;stroke:#000000;stroke-opacity:1" />
<path
   style="fill:#231f20;stroke:#000000;stroke-opacity:1"
   d="M 227.38808,25.412824 L 229.00403,25.412824 L 229.00403,53.295324 L 227.38808,53.295324 L 227.38808,25.412824 z"
   id="rect93" />
<path
   style="fill:#231f20;stroke:#000000;stroke-opacity:1"
   d="M 233.04152,25.412824 L 234.65557,25.412824 L 234.65557,53.295324 L 233.04152,53.295324 L 233.04152,25.412824 z"
   id="rect95" />
<path
   id="path99"
   d="M 289.92467,136.08782 L 289.92467,119.75922 L 292.14767,119.75922 L 300.70147,132.57377 L 300.70147,119.75922 L 302.78007,119.75922 L 302.78007,136.08782 L 300.55707,136.08782 L 292.00327,123.27327 L 292.00327,136.08782 L 289.92467,136.08782 L 289.92467,136.08782 z"
   style="fill:#231f20;stroke:#000000;stroke-opacity:1" /><path
   id="path101"
   d="M 306.49362,136.08782 L 306.49362,119.75922 L 308.66057,119.75922 L 308.66057,126.46907 L 317.10702,126.46907 L 317.10702,119.75922 L 319.27397,119.75922 L 319.27397,136.08782 L 317.10702,136.08782 L 317.10702,128.39852 L 308.66057,128.39852 L 308.66057,136.08782 L 306.49362,136.08782 z"
   style="fill:#231f20;stroke:#000000;stroke-opacity:1" />
<path
   id="path105"
   d="M 329.51782,138.92262 L 329.51782,140.36282 L 321.41337,140.36282 C 321.40197,140.00087 321.46087,139.65317 321.59007,139.31877 C 321.79717,138.76777 322.12872,138.22532 322.58567,137.69142 C 323.04262,137.15752 323.69812,136.54097 324.55217,135.84177 C 325.87837,134.74642 326.77707,133.88097 327.25017,133.24447 C 327.72327,132.60797 327.95982,132.00472 327.95982,131.43662 C 327.95982,130.84192 327.74512,130.34127 327.31857,129.93182 C 326.89012,129.52332 326.33342,129.31907 325.64562,129.31907 C 324.91792,129.31907 324.33747,129.53662 323.90142,129.97267 C 323.46537,130.40872 323.24497,131.01197 323.23927,131.78242 L 321.69552,131.61902 C 321.80097,130.46382 322.19997,129.58412 322.89252,128.97992 C 323.58412,128.37382 324.51322,128.07172 325.67982,128.07172 C 326.85687,128.07172 327.78882,128.39757 328.47472,129.04927 C 329.16062,129.70097 329.50357,130.50847 329.50357,131.47177 C 329.50357,131.96197 329.40287,132.44362 329.20242,132.91672 C 329.00197,133.38982 328.66757,133.88857 328.20207,134.41202 C 327.73562,134.93547 326.96232,135.65367 325.88407,136.56662 C 324.98157,137.32472 324.40017,137.83772 324.14272,138.10847 C 323.88527,138.37732 323.67152,138.64902 323.50337,138.92167 L 329.51782,138.92167 L 329.51782,138.92262 z"
   style="fill:#231f20;stroke:#000000;stroke-opacity:1" />
<path
   style="fill:#231f20;stroke:#000000;stroke-opacity:1"
   d="M 287.00057,120.74532 L 286.19307,122.12282 L 263.63057,109.10782 L 263.63057,108.20532 L 264.43807,107.73032 L 287.00057,120.74532 z"
   id="polygon107" />
</svg>
