<?xml version="1.0" encoding="UTF-8" standalone="no"?>
<svg
   xmlns:dc="http://purl.org/dc/elements/1.1/"
   xmlns:cc="http://creativecommons.org/ns#"
   xmlns:rdf="http://www.w3.org/1999/02/22-rdf-syntax-ns#"
   xmlns:svg="http://www.w3.org/2000/svg"
   xmlns="http://www.w3.org/2000/svg"
   xmlns:sodipodi="http://sodipodi.sourceforge.net/DTD/sodipodi-0.dtd"
   xmlns:inkscape="http://www.inkscape.org/namespaces/inkscape"
   version="1.1"
   id="Слой_1"
   x="0px"
   y="0px"
   viewBox="0 0 378.3 407.9"
   style="enable-background:new 0 0 378.3 407.9;"
   xml:space="preserve"
   sodipodi:docname="uridin.svg"
   inkscape:export-filename="C:\Users\neomo\Documents\GitHub\ky-nf-capstone\base_img\uridin.png"
   inkscape:export-xdpi="274.35309"
   inkscape:export-ydpi="274.35309"
   inkscape:version="1.0 (4035a4fb49, 2020-05-01)"><metadata
   id="metadata41"><rdf:RDF><cc:Work
       rdf:about=""><dc:format>image/svg+xml</dc:format><dc:type
         rdf:resource="http://purl.org/dc/dcmitype/StillImage" /></cc:Work></rdf:RDF></metadata><defs
   id="defs39"><filter
     inkscape:collect="always"
     style="color-interpolation-filters:sRGB"
     id="filter878"
     x="-2.0012119e-05"
     width="1.00004"
     y="-1.8451226e-05"
     height="1.0000369"><feGaussianBlur
       inkscape:collect="always"
       stdDeviation="0.0029176002"
       id="feGaussianBlur880" /></filter></defs><sodipodi:namedview
   inkscape:document-rotation="0"
   pagecolor="#ffffff"
   bordercolor="#666666"
   borderopacity="1"
   objecttolerance="10"
   gridtolerance="10"
   guidetolerance="10"
   inkscape:pageopacity="0"
   inkscape:pageshadow="2"
   inkscape:window-width="1920"
   inkscape:window-height="1017"
   id="namedview37"
   showgrid="false"
   inkscape:zoom="2.0838441"
   inkscape:cx="189.14999"
   inkscape:cy="203.95"
   inkscape:window-x="-8"
   inkscape:window-y="-8"
   inkscape:window-maximized="1"
   inkscape:current-layer="Слой_1" />
<g
   id="g34"
   style="filter:url(#filter878);opacity:1;stroke:#000000;stroke-opacity:1">
	<polygon
   points="135.1,323.2 135.1,357.7 137.5,357.7 137.5,325.5 216.7,325.5 216.7,357.7 219.1,357.7 219.1,323.2 251.7,260.2    251.7,260.2 251.7,259.7 251.9,259.7 251.9,222.3 249.5,222.3 249.5,257.7 249.5,257.8 196.4,235.2 195.5,237.4 248.8,260.2    208.9,317.5 145.2,317.5 105.3,260.2 158.7,237.4 157.7,235.2 104.7,257.8 104.7,257.7 104.7,204.1 104.7,202.1 104.7,201.4    104.1,201 104.1,201 104,201 102.3,200 102.3,200 71.9,182.5 70.7,184.5 102.3,202.8 102.3,204.1 102.3,257.7 102.3,259.7    102.5,260.2 102.4,260.2  "
   id="polygon2"
   style="stroke:#000000;stroke-opacity:1" />
	<rect
   x="209.9"
   y="121.6"
   width="2.4"
   height="45.6"
   id="rect4"
   style="stroke:#000000;stroke-opacity:1" />
	<polygon
   points="301.7,135.9 299.3,135.9 299.3,171.3 299.3,172.6 266.6,191.5 267.8,193.5 295.4,177.6 329.3,197.2 330.5,195.1    297.8,176.2 299.4,175.3 299.4,175.3 301.7,173.9 301.7,173.3 301.7,171.3 301.7,169.3 334.5,188.3 335.7,186.2 301.7,166.6  "
   id="polygon6"
   style="stroke:#000000;stroke-opacity:1" />
	<path
   d="M170,241c3.2,1.8,7.1,1.8,7.1,1.8c3.9,0,7-1.8,7-1.8c3.1-1.8,4.9-5.2,4.9-5.2c1.8-3.4,1.8-7.8,1.8-7.8   c0-4.5-1.8-7.8-1.8-7.8c-1.8-3.4-4.9-5.2-4.9-5.2c-3.1-1.8-7-1.8-7-1.8c-3.9,0-7,1.8-7,1.8c-3.2,1.8-4.9,5.2-4.9,5.2   c-1.8,3.4-1.8,7.8-1.8,7.8c0,4.3,1.8,7.7,1.8,7.7C166.9,239.1,170,241,170,241z M168.5,221.9c1.2-2.7,3.5-4,3.5-4   c2.2-1.4,5.1-1.4,5.1-1.4c2.9,0,5.1,1.4,5.1,1.4c2.2,1.4,3.5,4,3.5,4c1.2,2.6,1.2,6.2,1.2,6.2c0,3.6-1.2,6.2-1.2,6.2   c-1.2,2.6-3.5,4-3.5,4c-2.2,1.4-5,1.4-5,1.4c-2.8,0-5-1.4-5-1.4c-2.2-1.4-3.5-4-3.5-4c-1.2-2.6-1.2-6.1-1.2-6.1   C167.3,224.5,168.5,221.9,168.5,221.9z"
   id="path8"
   style="stroke:#000000;stroke-opacity:1" />
	<path
   d="M143.3,365.9c-3.1-1.8-7-1.8-7-1.8c-3.9,0-7,1.8-7,1.8c-3.2,1.8-4.9,5.2-4.9,5.2c-1.8,3.4-1.8,7.8-1.8,7.8   c0,4.3,1.8,7.7,1.8,7.7c1.8,3.4,4.9,5.2,4.9,5.2c3.2,1.9,7.1,1.9,7.1,1.9c3.9,0,7-1.8,7-1.8c3.1-1.8,4.9-5.2,4.9-5.2   c1.8-3.4,1.8-7.8,1.8-7.8c0-4.5-1.8-7.8-1.8-7.8C146.4,367.7,143.3,365.9,143.3,365.9z M144.8,385.1c-1.2,2.6-3.5,4-3.5,4   c-2.2,1.4-5,1.4-5,1.4c-2.8,0-5-1.4-5-1.4c-2.2-1.4-3.5-3.9-3.5-3.9c-1.2-2.6-1.2-6.2-1.2-6.2c0-3.6,1.2-6.2,1.2-6.2   c1.2-2.6,3.5-4,3.5-4c2.2-1.4,5.1-1.4,5.1-1.4c2.9,0,5.1,1.4,5.1,1.4c2.2,1.4,3.5,4,3.5,4c1.2,2.6,1.2,6.2,1.2,6.2   C146,382.5,144.8,385.1,144.8,385.1z"
   id="path10"
   style="stroke:#000000;stroke-opacity:1" />
	<polygon
   points="171.8,376.3 157.8,376.3 157.8,364.6 154,364.6 154,393.2 157.8,393.2 157.8,379.7 171.8,379.7 171.8,393.2    175.7,393.2 175.7,364.6 171.8,364.6  "
   id="polygon12"
   style="stroke:#000000;stroke-opacity:1" />
	<path
   d="M60.6,160c-3.1-1.8-7-1.8-7-1.8c-3.9,0-7,1.8-7,1.8c-3.2,1.8-4.9,5.2-4.9,5.2c-1.8,3.4-1.8,7.8-1.8,7.8   c0,4.4,1.8,7.7,1.8,7.7c1.8,3.4,4.9,5.2,4.9,5.2c3.2,1.9,7.1,1.9,7.1,1.9c3.9,0,7-1.8,7-1.8c3.1-1.8,4.9-5.2,4.9-5.2   c1.8-3.4,1.8-7.8,1.8-7.8c0-4.4-1.8-7.8-1.8-7.8C63.7,161.8,60.6,160,60.6,160z M62.1,179.2c-1.2,2.6-3.5,4-3.5,4   c-2.2,1.4-5,1.4-5,1.4c-2.8,0-5.1-1.4-5.1-1.4c-2.2-1.4-3.4-4-3.4-4c-1.2-2.6-1.2-6.1-1.2-6.1c0-3.6,1.2-6.2,1.2-6.2   c1.2-2.6,3.4-4,3.4-4c2.2-1.4,5.1-1.4,5.1-1.4c2.9,0,5.1,1.4,5.1,1.4c2.2,1.4,3.5,4,3.5,4c1.2,2.6,1.2,6.2,1.2,6.2   C63.3,176.6,62.1,179.2,62.1,179.2z"
   id="path14"
   style="stroke:#000000;stroke-opacity:1" />
	<polygon
   points="32.1,170.5 18,170.5 18,158.7 14.2,158.7 14.2,187.3 18,187.3 18,173.8 32.1,173.8 32.1,187.3 35.9,187.3    35.9,158.7 32.1,158.7  "
   id="polygon16"
   style="stroke:#000000;stroke-opacity:1" />
	<path
   d="M224.9,365.9c-3.1-1.8-7-1.8-7-1.8c-3.9,0-7,1.8-7,1.8c-3.2,1.8-4.9,5.2-4.9,5.2c-1.8,3.4-1.8,7.8-1.8,7.8   c0,4.3,1.8,7.7,1.8,7.7c1.8,3.4,4.9,5.2,4.9,5.2c3.2,1.9,7.1,1.9,7.1,1.9c3.9,0,7-1.8,7-1.8c3.1-1.8,4.9-5.2,4.9-5.2   c1.8-3.4,1.8-7.8,1.8-7.8c0-4.5-1.8-7.8-1.8-7.8C228,367.7,224.9,365.9,224.9,365.9z M226.4,385.1c-1.2,2.6-3.5,4-3.5,4   c-2.2,1.4-5,1.4-5,1.4c-2.8,0-5-1.4-5-1.4c-2.2-1.4-3.5-3.9-3.5-3.9c-1.2-2.6-1.2-6.2-1.2-6.2c0-3.6,1.2-6.2,1.2-6.2   c1.2-2.6,3.5-4,3.5-4c2.2-1.4,5.1-1.4,5.1-1.4c2.9,0,5.1,1.4,5.1,1.4c2.2,1.4,3.5,4,3.5,4c1.2,2.6,1.2,6.2,1.2,6.2   C227.6,382.5,226.4,385.1,226.4,385.1z"
   id="path18"
   style="stroke:#000000;stroke-opacity:1" />
	<polygon
   points="253.4,376.3 239.4,376.3 239.4,364.6 235.6,364.6 235.6,393.2 239.4,393.2 239.4,379.7 253.4,379.7 253.4,393.2    257.3,393.2 257.3,364.6 253.4,364.6  "
   id="polygon20"
   style="stroke:#000000;stroke-opacity:1" />
	<polygon
   points="258.1,209.6 258,209.6 243.6,187.2 239.7,187.2 239.7,215.9 243.3,215.9 243.3,193.5 243.3,193.5 257.7,215.9    261.6,215.9 261.6,187.2 258.1,187.2  "
   id="polygon22"
   style="stroke:#000000;stroke-opacity:1" />
	<polygon
   points="201.9,175.3 233.5,193.5 234.7,191.5 202,172.6 202,171.3 202,117.7 202,116.4 249.5,88.9 249.5,88.9 250.7,88.2    251.8,88.9 251.8,88.9 283.4,107.1 284.6,105.1 257.1,89.2 257.1,50.2 254.7,50.2 254.7,87.8 251.5,86 250.7,85.5 250.1,85.8    250.1,85.8 246.7,87.8 246.7,50.2 244.3,50.2 244.3,89.2 201.9,113.6 201.9,113.6 200.6,114.4 200.2,114.6 200.2,114.6 199.6,115    199.6,115.7 199.6,117.7 199.6,171.3 199.6,173.3 199.6,173.9 201.9,175.3  "
   id="polygon24"
   style="stroke:#000000;stroke-opacity:1" />
	<polygon
   points="293.2,107.1 293.2,107.1 307.6,129.5 311.5,129.5 311.5,100.8 307.9,100.8 307.9,123.2 307.9,123.2 293.5,100.8    289.6,100.8 289.6,129.5 293.2,129.5  "
   id="polygon26"
   style="stroke:#000000;stroke-opacity:1" />
	<polygon
   points="319.3,116 333.4,116 333.4,129.5 337.2,129.5 337.2,100.8 333.4,100.8 333.4,112.6 319.3,112.6 319.3,100.8    315.5,100.8 315.5,129.5 319.3,129.5  "
   id="polygon28"
   style="stroke:#000000;stroke-opacity:1" />
	<path
   d="M362.3,194c-1.8-3.4-4.9-5.2-4.9-5.2c-3.1-1.8-7-1.8-7-1.8c-3.9,0-7,1.8-7,1.8c-3.2,1.8-4.9,5.2-4.9,5.2   c-1.8,3.4-1.8,7.8-1.8,7.8c0,4.4,1.8,7.7,1.8,7.7c1.8,3.4,4.9,5.2,4.9,5.2c3.1,1.9,7,1.9,7,1.9c3.9,0,7-1.8,7-1.8   c3.1-1.8,4.9-5.2,4.9-5.2c1.8-3.4,1.8-7.8,1.8-7.8C364.1,197.3,362.3,194,362.3,194z M358.9,208c-1.2,2.6-3.4,4-3.4,4   c-2.2,1.4-5.1,1.4-5.1,1.4c-2.8,0-5-1.4-5-1.4c-2.2-1.4-3.5-4-3.5-4c-1.2-2.6-1.2-6.1-1.2-6.1c0-3.6,1.2-6.2,1.2-6.2   c1.2-2.6,3.4-4,3.4-4c2.2-1.4,5.1-1.4,5.1-1.4c2.9,0,5.1,1.4,5.1,1.4c2.2,1.4,3.4,4,3.4,4c1.2,2.6,1.2,6.2,1.2,6.2   C360.2,205.4,358.9,208,358.9,208z"
   id="path30"
   style="stroke:#000000;stroke-opacity:1" />
	<path
   d="M243.6,41.9c3.2,1.9,7.1,1.9,7.1,1.9c3.9,0,7-1.8,7-1.8c3.1-1.8,4.9-5.2,4.9-5.2c1.8-3.4,1.8-7.8,1.8-7.8   c0-4.4-1.8-7.8-1.8-7.8c-1.8-3.4-4.9-5.2-4.9-5.2c-3.1-1.8-7-1.8-7-1.8c-3.9,0-7,1.8-7,1.8c-3.2,1.8-4.9,5.2-4.9,5.2   c-1.8,3.4-1.8,7.8-1.8,7.8c0,4.4,1.8,7.7,1.8,7.7C240.5,40.1,243.6,41.9,243.6,41.9z M242.1,22.9c1.2-2.6,3.5-4,3.5-4   c2.2-1.4,5.1-1.4,5.1-1.4c2.9,0,5.1,1.4,5.1,1.4c2.2,1.4,3.5,4,3.5,4c1.2,2.6,1.2,6.2,1.2,6.2c0,3.6-1.2,6.2-1.2,6.2   c-1.2,2.6-3.5,4-3.5,4c-2.2,1.4-5,1.4-5,1.4c-2.8,0-5-1.4-5-1.4c-2.2-1.4-3.5-4-3.5-4c-1.2-2.6-1.2-6.1-1.2-6.1   C240.9,25.5,242.1,22.9,242.1,22.9z"
   id="path32"
   style="stroke:#000000;stroke-opacity:1" />
</g>
</svg>
